<?xml version="1.0" standalone="no"?>
<!DOCTYPE svg PUBLIC "-//W3C//DTD SVG 20010904//EN"
 "http://www.w3.org/TR/2001/REC-SVG-20010904/DTD/svg10.dtd">
<svg version="1.0" xmlns="http://www.w3.org/2000/svg"
 width="574.000000pt" height="574.000000pt" viewBox="0 0 574.000000 574.000000"
 preserveAspectRatio="xMidYMid meet">
<metadata>
Created by potrace 1.14, written by Peter Selinger 2001-2017
</metadata>
<g transform="translate(0.000000,574.000000) scale(0.100000,-0.100000)"
fill="#000000" stroke="none">
<path d="M2537 4998 c10 -18 37 -43 61 -54 l42 -22 -42 -26 -43 -25 33 -1 c39
0 100 24 123 49 9 10 18 39 20 64 4 44 2 47 -19 47 -15 0 -26 -7 -29 -19 -4
-16 -10 -17 -46 -10 -23 5 -58 13 -77 19 -19 5 -36 10 -38 10 -2 0 5 -15 15
-32z"/>
<path d="M3274 4665 c10 -10 16 -33 16 -61 0 -51 11 -66 63 -88 38 -15 136
-33 126 -22 -3 3 -25 16 -48 29 -51 26 -54 40 -11 48 30 7 85 59 93 91 4 14 1
15 -22 6 -35 -13 -129 -38 -146 -38 -7 0 -15 10 -17 23 -2 17 -11 23 -37 25
-31 3 -33 2 -17 -13z"/>
<path d="M2558 4536 c-6 -28 10 -60 19 -38 4 10 8 10 19 1 25 -21 16 15 -10
40 l-23 22 -5 -25z"/>
<path d="M2753 4535 c-23 -10 -33 -21 -33 -36 0 -18 2 -19 15 -9 20 16 32 5
16 -14 -10 -12 -9 -14 7 -9 20 5 42 41 42 68 0 18 -6 18 -47 0z"/>
<path d="M2874 4501 c-23 -10 -38 -37 -28 -53 4 -6 25 -7 53 -4 33 5 42 4 31
-3 -12 -9 -9 -11 15 -11 17 0 36 -4 43 -8 7 -5 -15 -6 -48 -4 -53 4 -60 2 -54
-12 5 -12 2 -15 -10 -10 -8 3 -18 14 -21 25 -5 14 -16 19 -46 19 -21 0 -39 -5
-39 -11 0 -6 8 -8 18 -5 24 8 100 -80 83 -97 -14 -14 -14 -54 -1 -62 6 -3 10
3 10 15 0 20 1 20 16 6 25 -25 35 -9 19 30 -14 34 -14 34 13 34 15 0 45 11 67
25 22 13 53 25 69 25 l30 0 -44 38 c-24 20 -51 42 -60 49 -24 17 -90 25 -116
14z"/>
<path d="M2350 4493 c-88 -31 -118 -61 -105 -104 5 -16 10 -18 21 -8 8 6 14
18 14 25 0 8 6 14 14 14 9 0 13 -10 12 -25 0 -14 -6 -25 -12 -25 -5 0 -19 -6
-29 -14 -17 -12 -15 -13 19 -11 50 4 72 33 68 94 0 8 4 25 9 38 4 12 7 23 6
22 -1 0 -9 -3 -17 -6z"/>
<path d="M2602 4449 c-33 -13 -27 -53 8 -56 16 -1 18 0 7 3 -33 10 -15 39 26
42 46 4 88 -24 131 -87 28 -40 29 -46 30 -171 1 -107 -2 -132 -15 -146 -15
-15 -19 -14 -43 7 -31 27 -86 113 -86 134 0 8 9 15 20 15 22 0 27 -16 8 -22
-7 -3 -5 -7 6 -11 14 -6 17 -2 14 15 -3 25 -34 36 -50 20 -20 -20 2 -77 52
-131 l50 -54 1 -71 c0 -73 23 -299 35 -348 9 -38 -20 -38 -38 -1 -26 53 -132
63 -145 13 -6 -24 -21 -26 -29 -5 -8 19 -63 19 -88 0 -17 -13 -17 -15 14 -34
26 -16 36 -17 51 -8 17 11 15 13 -19 23 l-37 12 37 1 c20 1 39 -3 43 -8 3 -6
13 -10 23 -10 9 1 28 -2 42 -5 24 -6 24 -6 3 3 -49 22 -10 58 47 44 38 -9 60
-41 60 -87 1 -58 57 -288 81 -329 22 -39 -1 -25 -100 61 -14 12 -37 25 -51 29
-41 10 -90 56 -100 93 -5 19 -6 38 -1 43 11 11 54 -11 46 -24 -4 -5 -1 -9 4
-9 19 0 11 39 -10 50 -33 18 -69 4 -69 -26 0 -21 -3 -25 -17 -18 -10 4 -50 14
-89 22 -67 14 -72 17 -97 58 -44 73 -60 132 -61 229 -1 86 1 93 33 145 48 76
81 110 108 110 28 0 33 -36 6 -44 -10 -2 -5 -4 12 -3 39 3 45 30 10 53 -37 24
-95 6 -124 -39 l-21 -32 1 30 c0 17 7 48 15 70 58 156 56 262 -5 295 -54 28
-121 -9 -124 -70 -2 -29 2 -36 21 -38 12 -2 22 1 22 6 0 6 -9 8 -20 5 -15 -4
-20 0 -20 14 0 26 50 73 78 73 54 0 72 -113 32 -205 -14 -33 -40 -132 -40
-154 0 -24 -16 -26 -75 -10 -49 13 -83 43 -102 88 -14 32 -13 36 3 48 26 19
42 16 47 -9 4 -20 4 -19 6 5 1 35 -21 44 -54 23 -34 -22 -33 -65 2 -108 15
-18 32 -36 37 -40 6 -4 4 -14 -6 -25 -31 -35 -39 -62 -28 -84 12 -22 50 -23
57 -2 3 7 -3 10 -15 6 -42 -11 -37 38 6 61 19 10 35 11 65 3 38 -10 39 -11 33
-46 -3 -20 -6 -57 -6 -83 0 -41 -2 -46 -20 -41 -11 3 -27 0 -35 -7 -22 -18
-18 -32 4 -18 31 19 55 -11 71 -89 7 -38 24 -85 37 -105 12 -21 23 -40 23 -43
0 -11 -198 -4 -242 10 -116 35 -159 137 -70 166 31 10 37 9 49 -7 7 -10 13
-13 13 -7 0 6 -7 16 -15 23 -14 12 -26 11 -105 -6 -36 -8 -137 33 -172 69 -35
37 -68 105 -68 141 0 16 9 32 25 42 23 15 27 15 50 0 29 -19 32 -33 8 -39 -17
-4 -17 -5 0 -6 25 -2 32 25 13 54 -25 38 -75 35 -98 -6 -10 -17 -18 -41 -18
-54 0 -31 27 -95 53 -124 18 -20 19 -25 7 -29 -27 -9 -80 -73 -80 -95 1 -27
22 -57 42 -57 15 0 38 19 38 32 0 13 -28 9 -32 -4 -6 -17 -28 0 -28 21 0 26
38 71 60 71 10 0 53 -16 94 -35 42 -19 81 -35 86 -35 6 0 10 -9 10 -20 0 -39
40 -86 100 -118 20 -11 231 -41 290 -42 8 0 2 -7 -15 -16 -16 -8 -38 -22 -47
-31 -21 -19 -33 -73 -24 -107 12 -48 76 -41 76 8 -1 19 -2 19 -11 4 -23 -40
-66 -4 -47 38 6 12 32 34 58 48 38 21 62 26 114 26 93 0 146 -30 261 -143 145
-146 193 -244 203 -421 l5 -99 -41 5 c-56 8 -95 38 -132 103 -48 84 -32 148
33 131 16 -4 27 -15 30 -29 4 -19 4 -18 6 5 2 45 -60 65 -92 30 -32 -35 -14
-145 31 -192 12 -12 13 -15 1 -18 -8 -3 -26 -16 -41 -30 -35 -32 -40 -97 -9
-107 25 -8 51 4 51 24 -1 14 -3 13 -15 -3 -17 -23 -45 -14 -45 14 0 27 43 70
70 70 11 0 50 -13 85 -29 61 -28 65 -32 65 -63 -1 -52 -38 -337 -53 -404 -30
-130 -103 -217 -170 -200 -60 15 -135 121 -122 173 9 36 66 89 105 97 74 14
130 -1 130 -35 0 -13 -21 -34 -40 -42 -11 -4 -9 -6 5 -6 45 -2 62 61 25 94
-15 14 -31 16 -72 13 -29 -3 -61 -9 -70 -13 -13 -5 -18 -3 -18 9 0 28 -31 66
-53 66 -21 0 -21 0 1 -16 24 -16 29 -53 11 -85 -11 -22 -49 -63 -53 -57 -9 15
-26 108 -26 146 0 48 -2 56 -40 199 -23 85 -22 109 5 119 21 9 57 -26 52 -48
-7 -24 0 -23 13 2 9 16 7 27 -10 50 -12 17 -30 30 -40 30 -14 0 -17 5 -13 23
3 12 10 27 14 33 14 17 25 146 17 192 -4 23 -16 56 -28 71 -26 38 -27 71 0 71
11 0 20 5 20 10 0 6 -11 10 -24 10 -21 0 -25 -5 -28 -37 -2 -30 -7 -39 -25
-41 -29 -4 -40 -39 -19 -60 10 -10 16 -12 16 -5 0 7 -4 15 -10 18 -19 12 -10
25 18 25 60 0 83 -64 62 -177 -7 -37 -28 -97 -46 -131 -19 -35 -34 -71 -34
-80 0 -10 -10 -3 -27 19 -59 73 -146 149 -235 204 -154 96 -230 170 -214 211
8 20 43 17 56 -3 9 -16 10 -15 8 7 -2 17 -10 26 -25 28 l-23 3 25 37 c14 20
25 44 25 53 0 22 -32 49 -57 49 -22 0 -39 -35 -22 -46 5 -3 9 4 9 15 0 23 19
28 38 9 21 -21 13 -47 -28 -87 -52 -50 -53 -82 -4 -139 44 -52 29 -54 -59 -8
-71 36 -171 124 -218 193 -38 54 -41 124 -7 147 35 25 65 20 76 -11 9 -25 11
-26 11 -6 1 32 -41 57 -81 49 -35 -7 -57 -31 -58 -61 -1 -55 -158 -60 -220 -7
-59 50 -80 79 -80 110 0 30 2 32 35 32 28 0 35 -4 35 -20 0 -11 5 -20 10 -20
6 0 10 13 10 29 0 21 -6 32 -21 36 -31 10 -67 -2 -84 -29 -14 -21 -14 -27 1
-62 9 -21 36 -59 60 -82 24 -24 44 -46 44 -48 0 -3 -9 -14 -20 -26 -43 -46
-10 -138 42 -119 24 8 38 41 19 41 -6 0 -11 -7 -11 -15 0 -20 -24 -19 -40 0
-11 13 -10 22 2 48 24 49 114 71 198 47 26 -8 39 -20 53 -48 26 -58 106 -138
178 -178 19 -10 36 -22 39 -25 3 -4 59 -28 125 -54 128 -50 170 -72 222 -118
40 -35 43 -51 6 -31 -43 21 -113 17 -177 -11 -31 -14 -65 -25 -76 -25 -51 0
-97 47 -71 73 8 8 15 6 26 -9 16 -19 16 -19 13 1 -4 26 -36 31 -53 8 -20 -25
-18 -47 5 -68 16 -15 33 -17 105 -13 84 4 85 4 85 -19 0 -30 42 -73 72 -73 33
0 52 15 45 34 -9 22 -36 31 -50 17 -8 -8 -5 -11 13 -11 18 0 21 -3 13 -11 -19
-19 -73 8 -73 35 1 64 73 76 142 23 31 -25 42 -40 40 -57 -9 -78 -102 -174
-180 -186 -79 -12 -186 0 -221 25 -38 27 -39 62 -2 71 21 5 22 7 7 19 -21 18
-46 -1 -46 -36 l0 -24 -32 23 c-43 30 -77 48 -93 48 -16 0 -30 36 -26 64 2 11
-2 16 -8 12 -6 -4 -11 -13 -11 -19 0 -17 -213 -11 -314 9 -64 13 -86 22 -112
48 -50 47 -53 79 -12 116 l33 31 -30 -7 c-66 -15 -82 -57 -42 -114 48 -72 140
-110 261 -110 l79 0 -21 -23 c-28 -29 -29 -73 -3 -87 28 -14 31 -13 31 13 0
17 -2 19 -10 7 -7 -11 -12 -12 -21 -3 -18 18 -6 36 41 61 57 30 115 27 150 -8
3 -3 38 -34 78 -69 39 -34 72 -66 72 -70 0 -3 -42 -6 -92 -7 -150 -2 -177 -12
-323 -118 -16 -11 -83 8 -133 37 -72 42 -109 147 -60 166 30 12 63 -14 38 -29
-8 -5 -12 -11 -9 -15 3 -3 14 4 24 15 17 19 17 22 3 37 -20 19 -67 20 -79 2
-5 -8 -9 -34 -9 -58 0 -37 -2 -42 -15 -31 -8 6 -31 16 -51 20 -35 8 -36 8 -29
-18 9 -37 35 -63 59 -60 12 1 26 -1 32 -5 7 -4 10 3 8 21 -2 15 -1 20 2 12 4
-8 15 -23 25 -34 19 -20 17 -36 -5 -36 -42 0 -64 -93 -25 -105 14 -5 27 -1 38
10 15 15 14 16 -12 10 -22 -6 -27 -4 -27 11 0 24 10 38 35 52 16 8 32 5 72
-12 29 -12 55 -24 58 -27 9 -10 -116 -129 -157 -150 -45 -23 -71 -24 -103 -3
-27 17 -32 43 -15 75 9 15 15 17 30 9 23 -12 40 7 19 21 -20 12 -32 11 -57 -7
-32 -22 -30 -82 4 -119 53 -57 157 -17 292 113 25 23 47 40 50 38 2 -3 -1 -19
-7 -37 -16 -45 -14 -55 13 -83 25 -28 67 -34 85 -12 9 10 7 17 -6 27 -9 8 -14
9 -10 2 9 -14 -27 -28 -44 -17 -15 9 -7 106 12 129 43 54 92 92 141 107 85 28
129 37 123 27 -4 -5 -13 -9 -21 -9 -35 0 -125 -53 -135 -79 -29 -75 51 -148
122 -111 25 14 24 27 -3 41 -19 9 -21 9 -10 -2 20 -22 14 -29 -26 -29 -64 0
-92 50 -54 96 34 43 80 56 222 65 74 5 148 11 164 15 36 9 46 -6 46 -69 0 -68
-40 -137 -80 -137 -33 0 -53 36 -29 51 11 7 10 9 -3 9 -28 0 -34 -41 -8 -62
12 -10 29 -18 37 -18 25 0 70 38 83 70 12 28 40 42 40 19 0 -6 17 -9 43 -7 38
3 42 6 45 31 3 23 0 27 -20 26 -17 -1 -18 -3 -5 -6 9 -2 17 -11 17 -19 0 -16
-65 -20 -75 -4 -3 5 -8 39 -12 75 -5 59 -4 65 13 65 10 1 35 7 55 14 32 11 35
11 37 -7 0 -11 6 -23 12 -27 17 -10 61 1 67 16 8 22 20 16 28 -13 3 -16 14
-36 23 -46 15 -17 14 -20 -16 -45 -32 -28 -41 -62 -23 -90 10 -17 43 -12 49 7
3 10 0 12 -13 8 -28 -11 -36 2 -20 34 20 38 60 39 126 3 41 -23 50 -33 55 -63
8 -41 44 -115 87 -179 16 -24 25 -47 21 -52 -21 -19 -113 -41 -173 -41 -83 0
-116 12 -140 52 -16 26 -20 28 -23 13 -2 -15 -8 -10 -26 19 -29 50 -28 63 6
81 32 18 15 21 -22 5 -53 -25 -41 -76 34 -142 29 -25 50 -50 46 -55 -12 -19
-88 -24 -185 -12 -76 10 -102 10 -120 1 -24 -13 -25 -42 -1 -49 12 -4 13 -2 3
9 -21 21 -15 29 21 29 43 0 62 -21 44 -49 -7 -12 -16 -21 -20 -21 -3 0 -13 -6
-20 -12 -32 -29 -62 -38 -130 -38 -98 0 -191 33 -233 82 -47 54 -73 148 -40
148 8 0 15 -5 15 -11 0 -5 5 -7 10 -4 21 13 10 35 -19 35 -43 0 -56 -22 -44
-75 13 -58 2 -58 -57 -2 -25 23 -58 51 -75 61 -35 23 -105 27 -128 7 -21 -17
-22 -60 -1 -89 19 -28 54 -30 54 -2 0 11 -4 20 -10 20 -5 0 -10 -4 -10 -10 0
-18 -29 -10 -35 10 -13 41 15 65 70 60 28 -2 114 -61 121 -82 3 -10 9 -18 13
-18 4 0 19 -9 32 -21 13 -11 34 -29 46 -39 12 -11 44 -32 70 -47 41 -24 48
-32 45 -55 -3 -25 0 -28 25 -27 26 1 26 2 5 7 -21 6 -22 9 -8 27 13 18 18 18
48 7 19 -6 57 -12 84 -13 42 0 46 -2 30 -12 -10 -7 -28 -22 -39 -34 -10 -12
-24 -20 -31 -19 -6 2 -8 1 -4 -1 3 -2 -1 -17 -10 -33 -14 -23 -14 -31 -3 -44
7 -9 21 -15 30 -15 13 1 13 2 -1 6 -10 2 -18 10 -18 17 0 41 206 196 260 196
15 0 14 -6 -8 -50 -31 -62 -25 -116 14 -130 36 -14 40 -12 16 8 -26 23 -36 61
-23 93 8 24 58 79 92 104 22 16 91 43 126 49 45 8 131 -4 137 -19 2 -7 -6 -33
-18 -58 -13 -25 -26 -58 -29 -74 -6 -27 -6 -27 10 5 9 17 20 32 24 32 3 0 9
-22 13 -49 6 -49 22 -66 51 -55 17 7 20 30 5 39 -5 3 -10 -1 -10 -9 0 -28 -18
-17 -25 14 -16 75 24 172 81 196 36 15 92 18 111 6 19 -12 93 -162 93 -188 0
-19 -5 -24 -25 -24 -60 0 -136 67 -138 122 -2 31 0 33 32 36 31 3 33 1 28 -19
-5 -17 -3 -19 6 -10 16 16 -3 45 -32 49 -31 5 -54 -24 -53 -64 1 -35 8 -46 52
-89 l24 -24 -23 -42 c-20 -36 -22 -44 -10 -65 15 -29 59 -34 59 -7 0 13 -3 14
-12 5 -19 -19 -28 -14 -28 16 0 16 8 36 18 45 22 20 91 23 115 5 37 -28 32
-269 -10 -468 -31 -148 -101 -258 -201 -316 -61 -36 -131 -87 -132 -96 0 -5
52 -8 116 -8 99 0 115 -2 110 -15 -4 -10 1 -15 17 -16 43 -2 88 3 120 13 59
18 181 38 237 38 54 0 198 -22 233 -36 14 -5 11 5 -15 47 -19 30 -39 65 -45
79 -53 113 -65 149 -95 280 -6 25 -12 108 -15 185 -4 130 2 197 27 290 5 17
11 42 14 57 9 42 35 50 111 38 37 -6 76 -16 87 -23 58 -33 108 -96 108 -135 0
-26 -19 -39 -31 -21 -7 11 -9 10 -9 -4 0 -14 6 -18 28 -15 25 3 27 6 27 50 0
47 8 51 32 17 21 -29 107 -78 143 -81 28 -2 36 2 49 24 13 23 13 30 1 52 -13
25 -50 37 -50 16 0 -5 7 -7 15 -4 19 8 29 -18 21 -51 -12 -49 -73 -24 -173 73
-23 22 -56 48 -73 58 -16 10 -30 22 -30 26 0 4 -6 8 -12 8 -28 0 -40 17 -29
38 13 25 -6 46 -29 32 -13 -8 -12 -10 3 -10 9 0 17 -7 17 -15 0 -18 -25 -19
-86 -4 l-46 12 93 44 c50 24 119 64 153 88 77 55 141 73 199 55 52 -15 137
-99 137 -135 0 -14 -4 -25 -10 -25 -5 0 -10 5 -10 12 0 8 -3 9 -10 2 -6 -6 -8
-18 -4 -28 5 -13 13 -16 35 -11 28 6 29 5 23 -24 -7 -33 16 -71 42 -71 7 0 20
-7 28 -16 15 -14 16 -12 16 23 0 55 -9 80 -31 86 -23 6 -37 -12 -19 -23 8 -5
15 -19 17 -32 2 -20 1 -21 -8 -5 -5 9 -17 17 -26 17 -10 0 -13 6 -9 16 6 16
-7 70 -26 107 -16 32 -2 29 66 -12 73 -45 114 -51 140 -22 21 23 13 41 -17 41
-16 0 -19 -3 -8 -9 18 -11 5 -31 -20 -31 -38 0 -158 79 -217 143 -35 37 -25
58 43 91 33 15 71 33 84 40 30 14 179 15 189 0 16 -23 79 -38 165 -38 74 -1
92 -4 101 -18 16 -26 -6 -45 -28 -23 -9 9 -16 12 -16 6 0 -6 9 -15 19 -21 15
-7 23 -6 35 6 19 18 20 26 6 40 -7 7 7 18 42 33 29 13 72 33 95 44 l42 20 36
-24 c41 -28 62 -85 48 -133 -9 -33 -37 -46 -56 -27 -9 9 -8 14 3 21 8 5 11 10
5 10 -5 0 -17 -5 -25 -10 -21 -13 -1 -44 32 -48 39 -5 60 28 59 92 0 47 3 56
17 56 25 0 62 37 62 60 0 14 -6 20 -22 19 -17 -1 -19 -2 -5 -6 22 -6 22 -16
-1 -36 -23 -21 -37 -21 -71 -1 -57 33 -56 48 7 92 78 54 145 77 180 60 35 -17
46 -61 22 -88 -21 -24 -40 -26 -40 -4 0 8 -4 12 -10 9 -26 -16 11 -42 43 -29
23 8 49 71 41 96 -7 24 -54 74 -54 58 0 -5 -16 -10 -35 -10 -34 0 -155 -51
-230 -98 l-39 -25 18 27 c23 35 24 81 2 105 -18 20 -19 19 30 60 13 11 15 23
9 55 -4 22 -7 46 -8 53 -1 17 -42 -16 -62 -49 -13 -22 -14 -32 -4 -49 10 -20
12 -20 21 -6 5 10 7 21 4 25 -2 4 2 16 10 27 14 19 15 18 11 -15 -4 -43 -26
-80 -48 -80 -21 0 -30 -22 -18 -41 7 -11 9 -10 9 4 0 24 33 18 38 -6 12 -62
-78 -156 -181 -188 -58 -18 -99 -12 -131 20 -19 19 -19 20 16 34 68 29 108 93
109 174 1 56 -15 83 -49 83 -23 0 -37 -26 -20 -36 7 -4 8 -3 4 4 -4 7 -1 12 6
12 66 -1 58 -134 -11 -178 -14 -9 -28 -19 -31 -22 -19 -22 -91 -42 -155 -43
-79 -2 -95 4 -79 31 6 9 17 28 25 42 8 14 20 33 28 43 18 22 61 23 61 1 0 -10
-6 -14 -15 -10 -15 5 -21 -5 -9 -17 8 -7 44 15 44 27 0 12 -32 35 -48 36 -21
0 -64 -50 -92 -105 -23 -46 -29 -51 -75 -61 -76 -17 -172 -52 -247 -88 -37
-18 -70 -31 -72 -29 -3 3 4 19 15 36 25 42 25 89 -1 112 -17 16 -24 16 -44 5
-21 -11 -27 -10 -41 4 -18 18 -45 22 -45 6 0 -5 8 -10 18 -10 10 0 28 -9 40
-20 25 -24 32 -25 32 -5 0 25 30 17 41 -12 15 -39 4 -64 -40 -96 -50 -35 -87
-34 -127 2 -44 40 -64 86 -64 147 0 85 62 184 105 168 18 -7 20 -30 3 -37 -8
-4 -7 -6 3 -6 22 -1 33 28 18 45 -24 29 -81 13 -107 -31 -10 -17 -11 -12 -6
28 4 27 7 86 8 132 1 93 -15 125 -63 125 -43 -1 -88 -51 -75 -84 7 -18 30 -21
39 -6 3 6 -1 7 -9 4 -23 -9 -21 29 2 49 26 24 49 21 68 -8 17 -27 16 -84 -5
-165 -7 -25 -13 -95 -14 -157 -2 -110 -3 -113 -24 -113 -18 0 -23 -6 -23 -25
0 -14 4 -25 10 -25 5 0 7 7 4 15 -9 23 28 19 49 -5 9 -11 17 -25 17 -30 0 -6
4 -10 10 -10 10 0 26 -66 21 -90 -5 -24 -34 -46 -133 -97 -40 -21 -119 -26
-148 -11 -40 21 -52 89 -44 238 3 69 9 233 13 365 l6 239 50 20 c41 16 75 20
190 20 125 1 146 -2 197 -22 106 -44 168 -139 139 -214 -10 -27 -51 -41 -51
-18 0 6 -7 10 -16 10 -33 0 -6 -25 30 -28 57 -5 79 20 74 80 -3 27 -3 48 0 48
3 0 21 -17 41 -38 116 -121 228 -169 291 -125 36 24 40 33 38 75 -2 32 -6 38
-31 44 -34 7 -58 -9 -39 -28 9 -9 12 -8 12 5 0 24 23 21 38 -4 21 -33 -1 -76
-41 -80 -74 -9 -87 -1 -194 109 -56 58 -102 106 -100 107 1 1 44 11 94 23 137
32 173 29 158 -17 -9 -28 -37 -35 -53 -14 -13 17 -14 17 -10 -2 3 -16 11 -20
43 -19 22 1 41 6 42 11 2 6 9 17 16 26 11 15 17 15 71 -3 88 -30 183 -27 252
7 46 22 59 25 75 15 11 -7 19 -8 19 -2 0 12 -45 24 -59 15 -6 -3 -11 2 -11 13
0 23 -45 56 -66 48 -22 -8 -17 -23 8 -22 29 1 36 -29 12 -55 -14 -16 -31 -19
-100 -19 -71 0 -93 5 -161 33 -43 19 -91 37 -107 41 l-30 7 30 25 c52 45 184
176 184 183 0 4 8 16 18 27 9 10 26 32 36 49 52 80 129 155 159 155 31 0 41
-13 32 -41 -4 -12 -12 -18 -21 -15 -8 3 -14 1 -14 -5 0 -19 45 -4 54 17 10 21
10 21 35 3 42 -29 74 -33 100 -10 31 27 21 61 -20 61 -16 0 -29 -4 -29 -10 0
-5 11 -10 25 -10 28 0 34 -24 9 -34 -26 -10 -32 -8 -75 34 -54 51 -94 54 -150
9 -38 -30 -49 -27 -29 9 5 9 17 35 27 57 23 54 124 157 180 185 67 33 122 37
151 10 26 -25 29 -55 5 -69 -10 -6 -13 -11 -6 -11 13 0 43 27 43 40 0 20 -22
64 -38 76 -20 15 -94 18 -120 5 -9 -5 -35 -17 -57 -27 -22 -11 -42 -22 -45
-25 -3 -4 -15 -9 -27 -13 -13 -4 -23 -12 -23 -17 0 -5 -4 -9 -10 -9 -5 0 -10
17 -10 39 0 72 -63 115 -112 77 -19 -14 -25 -56 -8 -56 6 0 10 12 10 26 0 22
4 25 27 22 17 -2 33 -13 42 -30 18 -32 6 -91 -41 -203 -16 -38 -38 -92 -50
-120 -60 -144 -117 -235 -146 -235 -9 0 -9 7 3 30 21 41 19 78 -10 134 -27 54
-34 133 -13 154 13 13 58 16 58 4 0 -4 -5 -13 -12 -20 -8 -8 -8 -12 -1 -12 6
0 16 6 22 14 9 11 8 18 -4 30 -20 20 -69 21 -85 1 -13 -15 -10 -127 4 -157 7
-15 3 -18 -17 -18 -36 0 -77 -39 -80 -75 -2 -33 23 -46 48 -25 17 14 20 40 5
40 -5 0 -10 -7 -10 -15 0 -8 -7 -15 -15 -15 -9 0 -15 9 -15 25 0 19 8 28 27
36 61 23 96 -16 74 -83 -15 -46 -117 -148 -187 -189 -51 -29 -69 -34 -146 -37
-48 -3 -95 -2 -104 2 -15 6 -15 9 6 31 12 13 19 28 15 34 -10 17 -23 13 -21
-6 1 -20 -38 -43 -74 -43 -14 0 -38 7 -55 16 -21 11 -75 19 -180 25 -138 7
-195 15 -195 26 0 9 36 59 58 79 12 12 40 24 61 28 39 6 91 -6 91 -21 -1 -19
-18 -33 -33 -27 -9 3 -17 2 -17 -4 0 -18 29 -22 45 -6 18 18 19 29 5 53 -12
23 -56 32 -103 21 -34 -7 -38 -6 -43 15 -13 53 -76 73 -82 27 -2 -12 1 -22 7
-22 6 0 8 7 5 15 -8 19 15 19 39 1 25 -19 21 -41 -14 -93 -39 -56 -44 -50 -59
73 -6 49 -13 96 -16 105 -11 39 105 134 212 175 76 28 174 35 212 15 13 -7 32
-27 43 -44 l21 -32 -4 38 c-2 20 -3 37 -1 37 2 0 23 -20 48 -44 50 -48 55 -71
24 -110 -12 -15 -16 -26 -8 -26 16 0 48 39 55 66 8 31 -33 101 -68 116 -15 7
-28 15 -28 18 0 3 18 21 39 42 l39 36 -27 6 c-14 3 -44 9 -66 14 l-40 9 45 21
c25 12 55 22 67 22 12 0 45 5 73 12 43 10 53 9 60 -3 6 -8 5 -18 0 -23 -16
-16 -11 -44 12 -66 32 -29 38 -25 38 24 0 36 -4 46 -20 51 -25 8 -27 38 -2 33
17 -4 26 2 61 33 10 9 34 19 52 22 19 3 48 9 65 12 l32 7 -32 30 c-36 35 -69
50 -91 41 -19 -7 -15 -39 4 -35 7 1 23 -1 35 -4 18 -7 17 -9 -14 -15 -26 -6
-37 -4 -43 7 -4 8 -18 14 -30 13 -22 0 -22 0 -1 -9 39 -15 42 -60 4 -60 -10 0
-22 -4 -25 -10 -9 -15 -51 -12 -65 5 -14 17 7 83 40 125 11 14 44 55 72 92 29
36 61 77 71 89 13 18 17 19 17 7 0 -10 -8 -22 -17 -27 -10 -6 -13 -10 -8 -11
17 0 32 14 40 39 4 15 10 19 14 12 5 -8 15 -5 34 9 15 12 27 19 27 16 0 -12
-41 -46 -55 -46 -23 0 -18 -28 6 -35 25 -8 79 38 79 66 0 10 5 21 10 24 20 12
10 26 -10 15 -11 -6 -25 -8 -30 -5 -5 3 -25 2 -45 -4 l-35 -9 15 28 c20 39 19
90 -2 106 -23 17 -48 18 -61 1 -8 -9 -3 -12 21 -12 21 0 33 -5 35 -16 3 -19
-29 -99 -40 -99 -5 0 -8 -6 -8 -14 0 -8 -6 -21 -13 -28 -7 -7 -29 -36 -50 -64
-40 -55 -166 -178 -174 -170 -3 2 1 30 8 60 17 76 2 126 -49 163 -20 15 -41
32 -45 38 -13 17 -2 110 19 148 24 45 111 117 141 117 32 0 58 -42 43 -70 -7
-12 -18 -19 -26 -16 -8 3 -14 1 -14 -4 0 -21 41 -9 51 14 22 47 -13 96 -68 96
-27 0 -110 -51 -124 -76 -15 -29 -26 -30 -34 -5 -7 24 -64 44 -99 35 -41 -10
-48 -64 -8 -64 15 1 15 2 -1 11 -9 6 -15 14 -12 20 10 15 72 10 86 -8 26 -30
3 -213 -26 -213 -8 0 -16 -4 -19 -8 -2 -4 11 -6 30 -4 149 18 180 -180 49
-311 -59 -60 -58 -59 -145 -113 -135 -82 -170 -79 -190 16 -11 50 -9 73 10
181 12 68 26 130 32 137 14 17 37 15 44 -3 7 -17 24 -10 24 9 0 8 -9 16 -21
19 -17 5 -20 11 -15 40 l6 35 -30 -15 c-18 -9 -30 -22 -30 -34 0 -11 4 -17 10
-14 5 3 -2 -18 -17 -47 -21 -42 -28 -71 -31 -140 -3 -49 -7 -88 -11 -88 -3 0
-14 19 -25 42 -22 53 -53 80 -86 76 -19 -2 -25 -9 -25 -28 0 -17 6 -25 20 -27
11 -2 14 0 8 3 -20 9 -15 24 6 24 48 0 83 -117 67 -225 -6 -39 -17 -56 -57
-97 -65 -65 -84 -62 -114 17 -70 180 -85 299 -48 372 14 29 33 45 83 70 69 34
108 41 128 21 17 -17 15 -31 -3 -24 -8 3 -15 1 -15 -4 0 -14 44 -24 48 -11 2
6 10 11 18 11 8 0 14 8 14 19 0 23 -26 31 -103 31 -73 0 -71 11 9 65 70 49
101 98 80 130 -16 24 -46 32 -46 12 0 -8 8 -14 18 -13 12 1 16 -5 14 -22 -2
-27 -7 -32 -87 -92 -33 -24 -67 -51 -75 -58 -22 -22 -79 -44 -99 -37 -22 7
-37 57 -46 152 -10 107 0 162 38 203 48 52 67 86 67 120 0 33 -24 50 -43 31
-8 -8 -7 -11 6 -11 20 0 24 -49 5 -68 -22 -22 -28 -12 -28 45 0 129 -72 246
-166 272 -46 13 -51 13 -82 0z m608 -699 c0 -5 -5 -10 -11 -10 -5 0 -7 5 -4
10 3 6 8 10 11 10 2 0 4 -4 4 -10z m495 -380 c3 -5 1 -10 -5 -10 -7 0 -7 -7 1
-22 11 -21 11 -22 -4 -9 -10 7 -17 22 -17 32 0 20 15 25 25 9z m-297 -47 c-26
-31 -30 -43 -14 -43 9 0 16 6 16 13 0 8 15 12 44 12 52 0 51 -11 -2 -21 -20
-4 -40 -12 -44 -18 -4 -7 -13 -5 -25 6 -10 8 -25 13 -33 10 -8 -2 2 9 24 27
43 35 57 40 34 14z m-1035 -775 c23 -32 49 -123 62 -220 8 -58 -5 -62 -72 -22
-49 28 -87 94 -81 141 2 23 8 28 36 31 34 3 43 -13 20 -36 -9 -9 -8 -12 4 -12
9 0 19 7 22 16 20 51 -70 79 -92 29 -7 -14 -12 -32 -12 -40 0 -9 -6 -12 -15
-9 -9 4 -15 0 -15 -9 0 -8 -6 -17 -14 -20 -15 -6 -36 11 -36 28 0 22 137 153
162 154 4 1 18 -14 31 -31z m-1233 -128 c0 -5 7 -10 15 -10 8 0 15 -7 15 -15
0 -13 -3 -13 -20 -3 -22 14 -35 38 -20 38 6 0 10 -4 10 -10z"/>
<path d="M2540 4436 c7 -7 13 -7 20 0 6 6 3 10 -10 10 -13 0 -16 -4 -10 -10z"/>
<path d="M2452 4351 c5 -86 25 -114 79 -109 l34 3 -35 34 c-19 19 -29 31 -22
27 16 -10 15 0 -4 30 -9 13 -14 27 -10 31 3 3 6 1 6 -5 0 -20 51 -71 66 -65
10 4 12 0 8 -11 -9 -23 3 -63 21 -70 11 -4 14 -2 9 6 -4 6 -6 33 -5 60 2 42
-2 51 -26 73 -15 14 -39 28 -53 31 -14 4 -36 13 -49 21 l-23 15 4 -71z"/>
<path d="M2145 4374 c2 -19 7 -39 10 -44 8 -13 35 -13 35 0 0 6 -4 10 -9 10
-5 0 -12 7 -15 16 -12 30 1 25 23 -8 l22 -33 -3 29 c-2 21 -12 34 -35 47 l-33
18 5 -35z"/>
<path d="M3231 4353 c8 -62 28 -86 66 -81 l28 3 -22 20 c-13 11 -23 25 -23 32
0 7 -4 13 -10 13 -5 0 -10 6 -10 13 1 6 9 2 19 -10 11 -13 26 -23 35 -23 10 0
16 -9 16 -24 0 -13 7 -29 15 -36 10 -9 15 -9 15 -1 0 6 -4 11 -10 11 -5 0 -9
16 -8 35 1 35 -15 65 -36 65 -7 0 -28 8 -47 18 l-35 18 7 -53z"/>
<path d="M1744 4289 c3 -17 6 -36 6 -41 0 -6 9 -8 20 -5 12 3 24 -1 29 -11 13
-23 22 -11 28 37 5 33 3 41 -11 41 -9 0 -16 -7 -16 -15 0 -22 -18 -18 -25 5
-3 11 -13 20 -22 20 -12 0 -14 -7 -9 -31z"/>
<path d="M2966 4295 c-14 -13 -26 -28 -26 -34 0 -20 20 -21 39 -2 13 13 23 16
27 10 4 -6 0 -15 -7 -20 -8 -5 -9 -9 -4 -10 6 -1 -3 -4 -20 -8 l-30 -7 24 -13
c34 -19 61 -3 94 58 l27 51 -49 0 c-37 0 -54 -5 -75 -25z"/>
<path d="M1966 4224 c-9 -67 14 -113 56 -114 20 0 14 28 -11 47 -14 11 -14 12
1 13 9 0 20 -5 24 -11 4 -8 9 -7 15 2 5 9 6 0 3 -21 -4 -24 -1 -40 8 -47 10
-9 13 -1 15 43 2 53 2 55 -40 84 -23 16 -47 34 -53 39 -8 7 -13 -4 -18 -35z
m54 -35 c0 -6 -4 -7 -10 -4 -5 3 -10 11 -10 16 0 6 5 7 10 4 6 -3 10 -11 10
-16z"/>
<path d="M2890 4260 c0 -5 5 -10 10 -10 6 0 10 5 10 10 0 6 -4 10 -10 10 -5 0
-10 -4 -10 -10z"/>
<path d="M3755 4253 c-37 -20 -45 -31 -45 -66 0 -35 21 -32 31 4 4 13 7 20 8
15 1 -4 10 2 22 15 l20 24 -16 -27 c-9 -14 -15 -34 -13 -44 2 -12 -5 -20 -22
-25 -24 -7 -23 -7 6 -8 40 -1 64 32 64 89 0 45 -8 48 -55 23z"/>
<path d="M3457 4217 c-49 -45 -59 -77 -33 -103 22 -21 27 -17 16 12 -8 20 -7
25 2 21 7 -2 21 12 30 32 l18 36 -4 -33 c-1 -18 -8 -38 -14 -44 -18 -18 -14
-38 6 -38 36 0 55 35 50 90 -7 74 -17 77 -71 27z"/>
<path d="M3560 4210 c0 -17 5 -40 10 -51 13 -23 40 -26 40 -4 0 8 -4 15 -10
15 -5 0 -10 5 -10 10 0 21 19 8 29 -20 13 -39 21 -38 21 3 0 38 -36 69 -52 45
-7 -10 -8 -8 -6 6 2 10 -3 21 -9 23 -9 3 -13 -6 -13 -27z"/>
<path d="M3265 4186 c7 -12 16 -36 20 -54 4 -22 13 -33 28 -36 54 -11 76 -12
71 -5 -3 5 -17 9 -30 9 -16 0 -24 5 -21 13 2 6 -5 23 -17 37 -14 16 -15 20 -3
11 9 -7 17 -10 17 -5 0 5 7 -2 16 -14 20 -29 34 -28 34 2 0 32 -19 45 -78 55
-49 8 -50 7 -37 -13z"/>
<path d="M3104 4163 c-43 -58 -47 -72 -29 -99 9 -14 20 -22 25 -19 6 4 10 2
10 -4 0 -7 8 -7 25 1 31 14 34 57 7 111 l-18 37 -20 -27z m27 -62 c4 -47 -16
-71 -23 -29 -4 21 11 83 17 76 2 -2 5 -23 6 -47z"/>
<path d="M2511 4151 c-16 -17 -35 -31 -43 -32 -27 -2 38 -17 78 -18 30 -1 44
4 48 15 9 23 8 24 -14 24 -11 0 -20 -3 -20 -7 0 -5 -11 -9 -25 -9 -14 -1 -22
2 -19 7 3 5 14 9 25 9 10 0 19 5 19 11 0 6 9 8 20 4 11 -3 28 -2 37 4 17 9 16
10 -2 10 -11 0 -32 3 -47 7 -23 5 -33 1 -57 -25z"/>
<path d="M2408 4119 c-27 -20 -39 -59 -18 -59 6 0 10 6 10 14 0 7 8 20 18 27
15 12 16 12 6 -1 -13 -17 -15 -50 -3 -50 13 0 20 17 23 55 3 41 0 41 -36 14z"/>
<path d="M3808 4098 c-6 -62 1 -88 28 -100 30 -14 64 13 64 50 0 23 -60 92
-80 92 -4 0 -10 -19 -12 -42z m56 -75 c6 -17 4 -22 -7 -17 -8 3 -14 19 -15 37
-1 33 9 25 22 -20z"/>
<path d="M1855 4098 c-59 -21 -85 -47 -85 -83 0 -40 24 -39 34 1 4 14 11 22
16 19 6 -3 10 -1 10 4 0 6 5 11 10 11 6 0 3 -11 -5 -24 -9 -13 -14 -29 -13
-36 2 -7 -8 -17 -22 -21 -22 -6 -21 -7 11 -8 47 -1 60 15 68 89 4 33 7 60 7
59 -1 0 -14 -5 -31 -11z"/>
<path d="M1620 4047 c0 -62 20 -97 56 -97 28 0 30 7 7 32 -15 17 -15 18 12 18
22 0 26 -4 22 -20 -3 -11 -2 -20 3 -20 13 0 19 40 10 64 -4 11 -31 33 -59 49
l-51 27 0 -53z m50 -17 c6 -11 8 -20 6 -20 -3 0 -10 9 -16 20 -6 11 -8 20 -6
20 3 0 10 -9 16 -20z"/>
<path d="M2478 4049 c-27 -15 -22 -32 7 -26 17 3 24 0 22 -7 -2 -6 -14 -10
-26 -9 -30 4 -26 -15 5 -23 28 -7 74 9 74 26 0 5 10 10 23 11 17 0 14 5 -18
20 -45 21 -63 23 -87 8z"/>
<path d="M1936 4021 c-39 -31 -40 -29 28 -51 19 -6 36 -6 48 1 25 14 23 31 -4
29 -45 -4 -53 0 -28 14 15 8 31 10 42 4 26 -13 29 -10 11 12 -24 28 -54 25
-97 -9z"/>
<path d="M4045 4043 c-54 -5 -85 -25 -85 -56 0 -11 -8 -26 -17 -34 -16 -13
-16 -13 4 -4 14 7 24 8 28 1 10 -16 55 -12 73 7 12 12 60 101 49 91 -1 -1 -24
-3 -52 -5z m15 -27 c0 -3 -4 -8 -10 -11 -5 -3 -10 -1 -10 4 0 6 5 11 10 11 6
0 10 -2 10 -4z m-36 -31 c-5 -13 -44 -28 -52 -20 -11 11 8 30 31 31 17 1 24
-2 21 -11z"/>
<path d="M2984 4008 c6 -32 20 -48 44 -48 10 0 10 5 2 23 -10 20 -9 20 9 -3
19 -23 21 -23 21 -5 0 26 -10 39 -37 54 -37 19 -46 14 -39 -21z"/>
<path d="M3184 3992 c3 -5 -5 -8 -17 -8 -16 1 -23 -6 -25 -24 -3 -24 -3 -24
11 -5 9 11 19 17 23 12 4 -4 2 -7 -4 -7 -7 0 -12 -4 -12 -10 0 -16 27 -11 34
6 9 24 7 44 -5 44 -5 0 -8 -4 -5 -8z"/>
<path d="M1457 3923 c-9 -114 19 -162 99 -171 41 -4 46 -3 42 14 -2 10 -18 28
-35 39 -18 11 -32 24 -33 28 0 5 5 5 10 2 16 -10 12 15 -5 31 -8 9 -15 20 -15
26 0 5 15 -8 33 -31 23 -29 38 -40 53 -38 19 3 21 0 17 -32 -4 -27 0 -43 15
-61 11 -14 24 -22 28 -18 4 5 0 16 -9 25 -13 16 -14 20 -1 37 8 11 14 34 14
52 0 40 -51 86 -115 104 -25 7 -56 22 -69 35 l-24 22 -5 -64z"/>
<path d="M2667 3969 c-7 -27 1 -47 24 -60 20 -10 26 0 9 17 -5 5 -11 19 -13
31 -5 32 -14 37 -20 12z"/>
<path d="M2708 3936 c17 -33 17 -33 20 -9 2 14 -2 30 -10 34 -25 16 -28 9 -10
-25z"/>
<path d="M1725 3930 c3 -5 8 -10 11 -10 2 0 4 5 4 10 0 6 -5 10 -11 10 -5 0
-7 -4 -4 -10z"/>
<path d="M2942 3906 c-31 -33 -31 -34 -9 -40 39 -10 74 -7 87 9 17 21 4 32
-19 18 -23 -14 -35 -5 -20 13 7 9 21 12 38 8 25 -6 25 -6 6 9 -30 24 -47 21
-83 -17z"/>
<path d="M4445 3930 c-4 -6 3 -27 15 -47 21 -36 20 -57 -2 -35 -7 7 -20 12
-30 12 -25 0 -23 -36 2 -50 11 -6 20 -17 20 -25 0 -22 31 -18 37 3 3 14 11 18
29 14 14 -2 24 0 24 7 0 6 -4 11 -8 11 -5 0 -9 14 -9 31 0 31 -17 51 -38 43
-6 -3 -18 2 -25 11 -8 10 -9 15 -1 15 6 0 11 5 11 10 0 13 -17 13 -25 0z"/>
<path d="M4410 3900 c0 -5 5 -10 10 -10 6 0 10 5 10 10 0 6 -4 10 -10 10 -5 0
-10 -4 -10 -10z"/>
<path d="M3168 3893 c6 -2 12 -9 12 -15 0 -6 -7 -7 -16 -4 -10 4 -14 1 -12 -6
5 -15 68 -24 68 -9 0 16 -30 41 -48 40 -11 0 -12 -2 -4 -6z"/>
<path d="M3726 3881 c-3 -5 -17 -12 -32 -15 -36 -9 -74 -50 -74 -80 0 -41 28
-43 43 -3 9 25 25 21 25 -8 0 -18 -7 -27 -24 -31 -22 -6 -40 -31 -29 -42 3 -3
5 0 5 6 0 7 11 12 25 12 44 0 73 42 77 111 3 55 -3 72 -16 50z"/>
<path d="M3280 3843 c0 -23 31 -63 49 -63 20 0 21 19 2 29 -10 6 -22 18 -25
28 -6 16 -6 16 12 0 10 -9 24 -17 30 -17 7 0 12 -8 12 -17 0 -15 2 -16 10 -3
15 23 -12 54 -54 61 -33 5 -36 4 -36 -18z"/>
<path d="M2845 3843 c14 -69 16 -73 37 -73 21 0 21 1 3 20 -10 11 -19 30 -20
42 -1 12 -6 23 -12 25 -7 3 -10 -4 -8 -14z"/>
<path d="M2690 3840 c-12 -8 -11 -10 5 -11 l20 0 -20 -9 c-16 -7 -17 -9 -3 -9
20 -1 29 11 20 26 -5 8 -13 9 -22 3z"/>
<path d="M1911 3805 c-17 -47 -14 -99 7 -118 38 -34 60 -4 25 35 -13 14 -13
18 -2 18 25 -1 48 -25 38 -41 -11 -18 -11 -29 1 -29 5 0 17 11 25 24 20 30 10
55 -45 106 l-38 36 -11 -31z m39 -31 c0 -8 -4 -12 -10 -9 -5 3 -10 10 -10 16
0 5 5 9 10 9 6 0 10 -7 10 -16z"/>
<path d="M2870 3831 c0 -12 30 -36 31 -25 0 5 4 0 9 -11 9 -20 9 -20 9 1 1 11
-4 25 -11 32 -14 14 -38 16 -38 3z"/>
<path d="M4137 3770 c-9 -26 -17 -60 -17 -75 0 -28 32 -65 57 -65 7 0 13 -9
13 -20 0 -11 5 -20 10 -20 20 0 9 39 -16 59 -15 12 -22 21 -17 21 5 0 7 16 5
36 -4 35 -4 35 16 19 11 -10 17 -25 15 -35 -3 -10 -1 -26 4 -34 8 -14 12 -13
32 8 23 24 23 26 8 58 -9 18 -34 47 -55 64 l-38 32 -17 -48z"/>
<path d="M2650 3731 c0 -52 8 -71 31 -71 19 0 27 25 10 32 -4 2 -12 14 -15 28
-7 25 -7 25 11 -3 11 -15 23 -24 27 -20 4 4 4 0 1 -9 -4 -9 -2 -25 4 -35 8
-15 10 -11 11 23 0 42 -12 60 -57 83 -22 11 -23 10 -23 -28z"/>
<path d="M2093 3720 c-16 -6 -23 -18 -23 -35 0 -20 5 -25 25 -25 16 0 28 7 31
18 3 9 10 25 15 35 10 19 -9 22 -48 7z m14 -35 c-23 -22 -33 -18 -12 5 10 11
20 18 23 16 2 -3 -3 -12 -11 -21z"/>
<path d="M2389 3680 c-52 -28 -64 -45 -51 -75 6 -14 10 -30 8 -37 -1 -7 -1
-10 1 -5 3 4 13 7 23 7 26 0 42 25 46 70 1 22 5 44 9 50 8 13 7 13 -36 -10z
m3 -42 c-7 -7 -12 -20 -12 -30 0 -10 -6 -18 -14 -18 -9 0 -12 8 -8 25 2 14 8
23 12 20 4 -3 11 2 14 11 4 9 9 14 13 10 4 -3 1 -12 -5 -18z"/>
<path d="M3447 3685 c-4 -8 -13 -15 -22 -15 -16 0 -20 -44 -9 -88 l7 -23 28
27 c31 30 39 74 14 74 -8 0 -15 -8 -15 -17 0 -10 -5 -25 -10 -33 -7 -11 -9 -7
-7 17 2 17 10 39 17 48 7 8 11 18 8 21 -3 3 -8 -2 -11 -11z"/>
<path d="M3840 3678 c14 -6 34 -22 45 -37 19 -26 19 -26 0 -11 -11 8 -26 21
-34 28 -18 18 -34 -4 -21 -29 10 -17 98 -45 109 -33 3 4 0 9 -6 11 -7 3 -13
12 -13 22 0 35 -29 61 -68 60 -35 -1 -36 -2 -12 -11z"/>
<path d="M1491 3659 c-24 -5 -48 -6 -54 -2 -6 3 4 -14 21 -39 17 -25 39 -48
47 -52 31 -11 72 -6 93 13 57 49 -10 98 -107 80z m63 -38 c48 -7 61 -30 16
-26 -17 1 -36 7 -43 14 -6 6 -17 11 -23 11 -7 0 -16 5 -20 12 -5 8 -2 9 12 3
10 -4 37 -11 58 -14z"/>
<path d="M1980 3650 c0 -5 5 -10 11 -10 5 0 7 5 4 10 -3 6 -8 10 -11 10 -2 0
-4 -4 -4 -10z"/>
<path d="M2181 3648 c-1 -22 18 -33 32 -19 8 8 7 11 -5 11 -9 0 -19 6 -21 13
-3 7 -6 6 -6 -5z"/>
<path d="M3285 3649 c-4 -6 -14 -8 -22 -5 -8 4 -11 1 -7 -5 3 -6 17 -8 31 -4
15 3 22 2 19 -4 -3 -5 0 -12 6 -15 7 -3 0 -4 -15 -1 -25 5 -27 4 -18 -14 15
-27 43 -34 75 -20 l26 12 -35 34 c-36 35 -50 40 -60 22z"/>
<path d="M4332 3631 c0 -14 -4 -40 -7 -58 -6 -26 -2 -36 18 -57 15 -14 35 -26
47 -26 11 0 20 -5 20 -12 0 -6 2 -9 5 -6 10 10 -7 37 -26 43 -11 4 -17 11 -13
16 3 5 -2 23 -10 41 -9 17 -14 33 -11 36 2 2 10 -7 16 -21 7 -15 16 -24 20
-21 5 3 9 -6 9 -20 0 -31 35 -37 42 -8 9 32 -9 59 -60 90 l-49 30 -1 -27z"/>
<path d="M1267 3612 c-29 -67 -17 -122 28 -122 12 0 15 5 10 18 -4 9 -9 35
-11 57 l-4 40 13 -35 c7 -19 18 -34 25 -32 15 3 16 -14 2 -23 -13 -8 -13 -55
1 -55 5 0 7 4 4 10 -3 5 1 20 9 32 24 34 19 57 -17 92 -19 18 -36 38 -38 45
-3 7 -12 -5 -22 -27z"/>
<path d="M3045 3629 c-4 -5 -4 -22 0 -36 l6 -25 19 23 c24 27 26 47 3 28 -15
-12 -16 -12 -10 4 7 18 -8 24 -18 6z"/>
<path d="M4038 3590 c6 -44 24 -70 47 -70 28 0 46 37 32 67 -6 15 -20 22 -46
25 -35 3 -37 2 -33 -22z m72 -42 c0 -13 -25 2 -38 23 -13 21 -13 21 12 3 14
-11 26 -22 26 -26z"/>
<path d="M4526 3601 c-16 -11 -33 -26 -38 -34 -9 -17 -1 -47 14 -47 5 0 7 -4
4 -9 -9 -14 42 0 55 15 8 10 9 27 3 54 l-9 40 -29 -19z m10 -56 c0 -14 -7 -25
-14 -25 -7 0 -11 3 -9 8 2 4 7 15 10 25 9 25 15 21 13 -8z"/>
<path d="M1638 3583 c7 -3 16 -2 19 1 4 3 -2 6 -13 5 -11 0 -14 -3 -6 -6z"/>
<path d="M3217 3567 c-23 -28 -22 -40 9 -77 25 -29 27 -29 40 -13 7 10 14 34
14 54 0 28 -5 38 -23 46 -19 9 -26 7 -40 -10z m38 -7 c3 -5 2 -10 -4 -10 -7 0
-7 -8 -1 -26 14 -35 12 -42 -5 -20 -17 22 -20 66 -6 66 6 0 13 -4 16 -10z"/>
<path d="M2138 3561 c5 -3 12 -16 16 -28 8 -26 43 -40 59 -24 8 8 6 11 -6 11
-9 0 -17 5 -17 11 0 6 9 9 20 6 13 -3 20 0 20 9 0 15 -3 16 -63 19 -21 1 -34
-1 -29 -4z"/>
<path d="M2587 3533 c-9 -9 -9 -63 1 -63 16 1 42 28 42 45 0 15 -2 16 -17 4
-15 -12 -16 -12 -10 4 6 17 -3 23 -16 10z"/>
<path d="M2418 3519 c-10 -5 -18 -17 -18 -25 0 -12 4 -13 23 -2 30 16 57 20
57 8 0 -6 -6 -10 -14 -10 -21 0 -67 -26 -59 -33 15 -16 46 -5 79 27 l34 33
-31 7 c-41 8 -51 7 -71 -5z"/>
<path d="M1528 3485 c-32 -38 -38 -89 -11 -99 25 -10 39 10 22 30 -11 13 -11
18 -1 21 6 3 12 11 12 18 0 8 4 17 10 20 6 4 7 -6 3 -26 -4 -21 -2 -34 8 -40
12 -8 11 -11 -3 -20 -26 -15 -23 -32 2 -19 39 21 45 53 19 104 -12 25 -25 46
-28 45 -3 0 -18 -15 -33 -34z"/>
<path d="M1874 3485 c-8 -34 0 -41 31 -27 25 11 34 32 15 32 -5 0 -10 -4 -10
-9 0 -5 -7 -12 -16 -15 -15 -6 -15 -4 -3 11 8 10 19 21 24 25 6 4 0 8 -12 8
-16 0 -25 -8 -29 -25z"/>
<path d="M1740 3462 c-39 -14 -55 -64 -24 -76 27 -10 54 3 53 27 -1 35 -13 54
-29 49z m1 -41 c-6 -10 -7 -21 -4 -25 3 -3 1 -6 -5 -6 -7 0 -12 4 -12 9 0 18
12 41 21 41 6 0 6 -8 0 -19z"/>
<path d="M2959 3463 c-18 -4 -33 -43 -17 -43 5 0 6 -5 2 -11 -4 -8 0 -8 15 0
13 7 21 21 21 36 0 14 -1 24 -2 24 -2 -1 -10 -3 -19 -6z m4 -28 c-3 -9 -8 -14
-10 -11 -3 3 -2 9 2 15 9 16 15 13 8 -4z"/>
<path d="M2710 3404 c-14 -36 -9 -68 11 -72 12 -2 15 4 12 30 -3 32 -3 32 8 8
7 -14 11 -32 10 -40 -2 -13 -1 -13 8 0 17 24 13 43 -14 74 l-25 29 -10 -29z"/>
<path d="M3750 3419 c-13 -10 -13 -10 0 -6 8 2 21 -2 28 -9 13 -15 9 -18 -22
-14 -11 1 -17 -3 -14 -12 6 -17 52 -22 78 -8 21 11 21 11 -5 36 -29 26 -42 29
-65 13z"/>
<path d="M3193 3413 c-14 -5 -17 -31 -7 -57 6 -16 57 -22 89 -10 14 6 11 12
-16 40 -32 34 -42 37 -66 27z m25 -31 c2 -7 -2 -10 -12 -6 -9 3 -16 11 -16 16
0 13 23 5 28 -10z m37 -20 c-3 -3 -11 0 -18 7 -9 10 -8 11 6 5 10 -3 15 -9 12
-12z"/>
<path d="M1953 3377 c-28 -41 -29 -73 -3 -89 11 -7 21 -22 21 -33 1 -20 1 -20
6 0 3 11 14 26 24 33 25 17 24 42 -2 86 -12 20 -22 36 -22 36 -1 0 -12 -15
-24 -33z m39 -67 c6 0 5 -7 -3 -17 -13 -14 -15 -13 -19 13 -4 16 -4 38 0 49 4
15 6 12 8 -12 2 -18 8 -33 14 -33z"/>
<path d="M4082 3395 c-7 -8 -22 -15 -33 -15 -33 0 -54 -29 -54 -77 0 -24 3
-43 7 -43 11 0 19 36 12 56 -4 14 -3 15 4 6 7 -11 14 -8 31 14 11 14 21 22 21
17 0 -5 -5 -14 -12 -21 -7 -7 -9 -12 -4 -12 4 0 0 -7 -8 -16 -21 -20 -20 -34
2 -34 38 0 62 42 60 105 -1 38 -6 42 -26 20z"/>
<path d="M1779 3368 c-1 -7 -1 -16 0 -20 0 -5 -4 -8 -9 -8 -7 0 -7 -6 0 -20
13 -25 46 -25 83 -1 l29 19 -23 21 c-25 23 -78 29 -80 9z m59 -29 c10 -1 1 -5
-18 -9 -42 -10 -50 -5 -24 14 10 8 21 10 22 5 2 -5 11 -9 20 -10z"/>
<path d="M889 3300 c24 -22 37 -40 29 -40 -8 0 -20 6 -27 13 -11 10 -13 10 -7
0 5 -9 0 -13 -13 -13 -12 0 -21 -6 -21 -13 0 -17 20 -37 38 -37 8 0 20 -7 27
-17 14 -19 35 -9 35 18 0 14 7 19 24 19 38 0 38 12 1 55 -29 34 -36 38 -52 29
-24 -15 -65 2 -42 17 10 6 7 9 -11 8 -24 0 -22 -2 19 -39z"/>
<path d="M3838 3301 c5 -44 18 -61 46 -60 16 0 17 2 6 7 -16 7 -20 25 -7 38 4
4 7 0 7 -9 0 -9 7 -17 15 -17 8 0 15 8 15 19 0 19 -30 44 -65 53 -18 4 -20 1
-17 -31z"/>
<path d="M1147 3311 l-49 -6 24 -22 c12 -12 28 -28 35 -35 37 -41 89 -52 112
-24 13 16 -4 26 -45 26 -14 0 -23 4 -20 9 4 5 0 11 -6 14 -7 3 5 4 27 3 26 -1
46 -8 57 -21 16 -18 17 -19 18 -2 0 10 -11 29 -25 42 -25 26 -36 27 -128 16z"/>
<path d="M2493 3297 c-52 -36 -72 -104 -33 -114 23 -6 24 -8 10 -34 -7 -13 -7
-19 0 -19 5 0 10 7 10 15 0 8 7 15 15 15 8 0 22 11 31 25 14 21 15 32 5 71 -6
25 -9 49 -6 55 8 12 6 11 -32 -14z m4 -116 c-15 -6 -20 8 -12 36 l8 28 6 -30
c4 -16 3 -32 -2 -34z"/>
<path d="M835 3300 c-3 -5 1 -10 10 -10 9 0 13 5 10 10 -3 6 -8 10 -10 10 -2
0 -7 -4 -10 -10z"/>
<path d="M4561 3302 c-1 -7 12 -18 29 -23 16 -6 28 -14 25 -19 -2 -4 4 -18 15
-30 25 -29 25 -31 -5 -17 -14 7 -25 17 -25 23 0 6 -6 17 -14 23 -11 10 -16 8
-21 -8 -9 -30 10 -57 55 -75 50 -20 80 -22 62 -4 -7 7 -12 25 -12 40 0 46 -27
78 -65 78 -18 0 -36 6 -38 13 -4 9 -6 9 -6 -1z"/>
<path d="M4354 3282 c-20 -14 -23 -40 -5 -56 23 -21 28 -21 69 11 l36 27 -35
12 c-41 15 -51 16 -65 6z m34 -33 c-21 -14 -48 -11 -42 5 3 8 15 11 30 8 19
-3 22 -7 12 -13z"/>
<path d="M2171 3202 c-10 -3 -41 -53 -41 -67 0 -9 40 -6 61 5 20 11 27 40 9
40 -5 0 -10 -4 -10 -9 0 -5 -10 -11 -21 -14 l-21 -6 20 20 c12 10 26 19 31 19
5 0 12 4 15 8 5 8 -23 11 -43 4z"/>
<path d="M3635 3190 c-22 -24 -13 -39 11 -19 13 11 18 11 21 2 3 -8 23 -13 49
-13 30 0 43 -4 38 -11 -3 -6 -19 -9 -35 -7 -15 3 -26 1 -23 -3 2 -4 -15 -5
-38 -1 -41 5 -42 4 -28 -14 34 -44 60 -45 135 -5 l54 29 -27 11 c-15 6 -40 20
-57 30 -39 26 -78 26 -100 1z"/>
<path d="M1775 3142 c-7 -45 0 -82 17 -82 6 0 8 10 4 25 -4 14 -4 25 0 25 13
0 30 -26 26 -40 -2 -9 2 -7 11 5 16 21 13 31 -27 79 l-24 29 -7 -41z"/>
<path d="M2017 3154 c-11 -15 -16 -32 -12 -42 5 -12 9 -13 12 -4 3 6 9 10 14
6 5 -3 9 11 9 30 0 20 -1 36 -2 36 -2 0 -11 -12 -21 -26z"/>
<path d="M2280 3158 c0 -21 0 -21 -15 -2 -9 12 -14 14 -15 6 0 -8 9 -25 19
-38 16 -20 20 -21 25 -8 9 25 7 64 -4 64 -5 0 -10 -10 -10 -22z"/>
<path d="M2676 3135 c-22 -33 -20 -72 4 -87 11 -7 20 -20 21 -28 0 -13 1 -13
6 0 4 8 12 21 20 28 17 18 17 57 -2 76 -8 8 -15 19 -15 25 0 19 -17 12 -34
-14z m35 -85 c-3 -11 -7 -8 -11 10 -4 14 -4 32 -1 40 3 11 7 8 11 -10 4 -14 4
-32 1 -40z"/>
<path d="M1325 3141 c-3 -6 -17 -8 -30 -5 -32 8 -72 -35 -81 -85 -4 -20 -11
-44 -16 -54 -8 -16 -6 -18 29 -11 44 8 99 45 108 74 3 10 1 29 -5 41 -10 17
-9 23 1 30 7 4 11 11 7 14 -3 4 -9 2 -13 -4z m-19 -47 c-9 -8 -16 -23 -16 -31
0 -9 -3 -13 -7 -10 -3 4 -18 -3 -32 -15 -21 -19 -23 -20 -11 -3 8 11 21 26 28
34 7 7 11 20 8 27 -4 10 3 14 20 14 23 0 24 -1 10 -16z"/>
<path d="M2544 3125 c-4 -8 -14 -15 -23 -15 -11 -1 -8 -5 9 -15 33 -19 55 -19
75 2 16 16 16 17 -1 30 -24 17 -53 17 -60 -2z m36 -14 c0 -13 -28 -22 -35 -11
-3 4 1 11 7 13 20 8 28 8 28 -2z"/>
<path d="M3189 3088 c1 -29 0 -50 -3 -47 -4 4 -8 24 -9 45 -4 49 -30 55 -35 8
-2 -23 4 -39 21 -58 l25 -26 21 42 c18 36 19 45 7 62 -23 35 -31 27 -27 -26z"/>
<path d="M3415 3116 c-12 -8 -16 -19 -12 -30 8 -20 28 -17 36 5 4 12 2 12 -12
0 -22 -17 -22 -7 -1 14 21 21 13 29 -11 11z"/>
<path d="M4531 3095 c-28 -20 -31 -25 -15 -25 11 0 25 5 31 11 8 8 17 8 31 0
11 -6 31 -11 43 -11 12 0 20 -3 16 -6 -3 -3 -28 -6 -56 -6 -57 1 -64 -9 -25
-35 26 -16 28 -16 82 12 54 29 55 29 30 40 -14 5 -31 15 -39 22 -30 25 -63 25
-98 -2z"/>
<path d="M3074 3078 c-4 -7 -2 -14 4 -16 7 -2 9 -9 5 -15 -4 -7 1 -6 10 2 9 7
17 17 17 21 0 14 -29 20 -36 8z"/>
<path d="M3277 3043 c-37 -19 -51 -51 -38 -83 l10 -25 0 28 c1 17 6 27 16 27
18 0 19 -12 3 -28 -8 -8 -9 -15 -1 -23 20 -20 43 18 43 72 0 27 -1 49 -2 48
-2 -1 -16 -8 -31 -16z"/>
<path d="M1020 2996 c0 -42 5 -58 25 -80 26 -28 40 -32 51 -14 4 6 -3 19 -16
30 -12 10 -20 21 -17 25 4 3 2 12 -5 20 -6 7 -8 16 -5 19 3 3 13 -8 23 -25 10
-16 21 -28 26 -25 4 3 8 -8 8 -24 0 -16 8 -36 18 -43 15 -13 16 -12 4 3 -10
12 -11 22 -3 37 6 11 11 24 11 30 0 16 -41 55 -82 79 l-38 21 0 -53z"/>
<path d="M2077 3043 c-13 -12 -7 -23 11 -23 10 0 27 -7 38 -15 22 -17 15 -19
-19 -6 -19 8 -27 6 -31 -4 -8 -22 11 -28 60 -20 47 7 47 8 0 55 -20 20 -47 26
-59 13z"/>
<path d="M4256 3041 c-3 -4 -17 -6 -30 -4 -19 4 -28 -1 -40 -25 -15 -30 -21
-62 -11 -62 2 0 22 7 44 16 33 13 40 21 43 50 4 35 3 40 -6 25z m-41 -49 l-28
-27 23 33 c12 18 25 31 28 27 3 -3 -7 -18 -23 -33z"/>
<path d="M1572 3016 l-33 -12 40 -37 c46 -42 80 -47 116 -19 l24 19 -20 31
c-16 27 -24 32 -56 31 -21 -1 -53 -7 -71 -13z m117 -38 c12 -16 10 -17 -21
-15 -18 1 -40 8 -48 16 -12 12 -10 13 18 9 18 -2 32 0 32 5 0 6 1 8 3 6 1 -2
9 -12 16 -21z"/>
<path d="M2047 3009 c6 -22 23 -26 23 -5 0 8 -6 16 -14 19 -10 4 -12 0 -9 -14z"/>
<path d="M3402 3018 c-13 -13 -16 -58 -4 -58 10 0 52 38 52 47 0 3 -7 0 -15
-7 -9 -7 -19 -9 -23 -5 -4 4 -1 10 6 12 13 5 17 23 4 23 -4 0 -13 -5 -20 -12z"/>
<path d="M3471 3023 c-1 -6 3 -14 8 -17 4 -3 6 -18 3 -32 -4 -20 1 -31 19 -45
33 -25 59 -24 59 2 0 34 -32 79 -56 79 -12 0 -25 6 -27 13 -4 9 -6 9 -6 0z
m47 -40 c-1 -5 4 -19 11 -33 12 -23 11 -22 -13 4 -30 34 -31 36 -11 36 8 0 14
-3 13 -7z"/>
<path d="M4408 3019 c-26 -15 -22 -45 12 -81 30 -31 30 -31 30 -7 0 13 4 30 9
38 11 17 -7 61 -23 61 -6 0 -19 -5 -28 -11z m31 -42 c0 -27 -2 -29 -9 -12 -12
28 -12 57 0 50 6 -3 10 -21 9 -38z"/>
<path d="M1389 2989 c-9 -18 -7 -27 10 -50 12 -15 21 -33 21 -39 0 -25 18 -6
29 30 8 29 9 45 1 60 -16 30 -33 25 -25 -7 5 -23 4 -25 -9 -14 -8 7 -12 19 -9
27 8 22 -5 17 -18 -7z"/>
<path d="M2267 3003 c-16 -4 -14 -8 14 -29 18 -13 39 -24 46 -24 15 0 36 37
28 50 -6 10 -55 12 -88 3z m76 -20 c-7 -2 -21 -2 -30 0 -10 3 -4 5 12 5 17 0
24 -2 18 -5z"/>
<path d="M3640 2960 c-14 -11 -32 -20 -40 -20 -19 0 47 -45 79 -53 16 -4 30 1
47 18 12 12 29 25 36 28 10 4 9 6 -2 6 -8 1 -21 10 -28 21 -16 26 -59 26 -92
0z m74 -32 c-13 -3 -36 -3 -51 2 -27 8 -26 8 10 9 20 1 37 6 37 11 0 6 6 5 14
-2 12 -11 10 -14 -10 -20z"/>
<path d="M1735 2933 c-30 -7 -35 -15 -44 -70 -7 -49 -7 -50 13 -39 51 28 66
42 66 63 0 28 -20 30 -27 3 -3 -11 -10 -20 -15 -20 -15 0 -4 34 17 52 11 10
18 17 15 17 -3 -1 -14 -3 -25 -6z"/>
<path d="M2390 2927 c0 -11 -8 -17 -23 -17 -13 0 -33 -9 -45 -20 -18 -17 -22
-32 -22 -81 l0 -59 36 15 c61 25 85 65 68 109 -5 13 -9 14 -20 5 -8 -6 -14
-18 -14 -25 0 -8 -4 -14 -10 -14 -5 0 -10 -6 -10 -14 0 -8 -7 -17 -16 -20 -12
-5 -11 1 5 28 16 25 18 35 9 39 -8 3 -1 9 15 16 27 11 45 36 33 48 -3 4 -6 -1
-6 -10z"/>
<path d="M3412 2868 c2 -17 11 -36 20 -42 23 -14 37 2 15 18 -9 7 -17 19 -17
27 0 8 6 6 15 -7 8 -10 15 -14 16 -9 0 6 5 -1 9 -15 l8 -25 1 26 c1 29 -12 43
-47 52 -21 5 -23 2 -20 -25z"/>
<path d="M3810 2893 c0 -6 -9 -13 -20 -16 -18 -5 -20 -12 -18 -51 2 -25 5 -46
7 -46 11 0 60 64 55 71 -9 15 -20 10 -32 -13 -7 -15 -11 -18 -11 -8 -1 9 6 26
15 38 9 13 13 26 10 29 -3 4 -6 2 -6 -4z"/>
<path d="M983 2853 c14 -50 35 -73 64 -73 30 0 29 14 -2 28 -14 6 -25 18 -25
26 0 8 -6 17 -12 19 -7 3 -8 6 -3 6 6 1 27 -15 48 -35 l37 -36 0 30 c0 28 -5
32 -55 51 -31 12 -57 21 -59 21 -2 0 1 -17 7 -37z"/>
<path d="M4395 2878 c-4 -9 -19 -21 -35 -27 -39 -13 -64 -54 -55 -89 4 -15 7
-39 7 -55 1 -27 1 -27 16 -6 11 16 12 26 3 45 -14 32 -14 41 1 26 10 -10 17
-3 35 30 12 24 22 36 23 28 0 -9 -6 -22 -12 -28 -10 -10 -10 -15 1 -21 11 -7
9 -11 -8 -20 -28 -15 -28 -51 0 -51 38 0 54 28 52 91 -2 65 -17 106 -28 77z"/>
<path d="M4850 2854 c0 -8 5 -12 10 -9 6 4 8 11 5 16 -9 14 -15 11 -15 -7z"/>
<path d="M1307 2846 c-50 -18 -67 -34 -67 -62 0 -29 16 -32 25 -4 8 26 25 17
18 -9 -3 -11 -15 -22 -27 -24 -14 -3 -11 -5 10 -6 17 0 36 5 41 12 8 9 44 108
39 107 0 -1 -18 -7 -39 -14z m13 -30 c0 -2 -7 -7 -16 -10 -8 -3 -12 -2 -9 4 6
10 25 14 25 6z"/>
<path d="M4598 2853 c-44 -5 -62 -24 -63 -67 -1 -30 1 -32 35 -34 29 -2 41 2
52 20 15 23 29 89 19 86 -3 -1 -23 -3 -43 -5z m6 -46 c-3 -9 -17 -23 -30 -32
-22 -14 -24 -14 -24 4 0 12 9 21 25 25 14 4 25 12 25 18 0 6 2 9 5 6 3 -3 3
-12 -1 -21z"/>
<path d="M4779 2815 c-7 -19 -17 -35 -21 -35 -4 0 -8 -7 -8 -15 0 -16 34 -38
44 -28 3 3 6 -5 6 -20 0 -39 11 -39 55 4 36 35 38 41 27 60 -10 16 -10 24 -1
35 6 7 15 11 20 8 5 -3 6 2 3 11 -6 14 -9 14 -26 -2 -11 -10 -24 -28 -29 -40
-5 -13 -13 -23 -19 -23 -12 0 -13 17 -1 24 4 3 6 17 3 31 -7 38 -38 32 -53
-10z"/>
<path d="M2588 2812 c-16 -7 -16 -10 7 -35 26 -27 59 -35 70 -17 3 5 -9 16
-27 24 -31 14 -31 15 -7 13 15 -2 34 -9 43 -16 9 -8 19 -11 23 -7 3 3 1 6 -5
6 -7 0 -12 6 -12 14 0 24 -52 34 -92 18z"/>
<path d="M1408 2779 c-3 -17 2 -45 11 -62 17 -34 51 -49 51 -23 0 9 -4 16 -10
16 -5 0 -10 7 -10 15 0 9 6 12 15 9 8 -4 15 -16 15 -28 0 -43 16 -44 18 -1 1
39 -2 47 -31 68 -52 39 -54 39 -59 6z"/>
<path d="M1605 2798 c-34 -19 -55 -46 -55 -73 0 -28 30 -36 30 -7 1 19 23 52
36 52 4 0 3 -5 -4 -12 -7 -7 -12 -21 -12 -31 0 -11 -8 -26 -17 -33 -17 -12
-17 -13 3 -14 33 0 45 23 42 79 -3 46 -4 49 -23 39z"/>
<path d="M4117 2795 c-21 -7 -45 -21 -53 -32 -17 -23 -14 -58 6 -58 8 0 16 9
18 20 1 11 14 25 27 31 24 12 24 11 10 -9 -8 -12 -15 -29 -15 -39 0 -11 -7
-18 -19 -18 -11 0 -23 -4 -26 -10 -4 -6 6 -10 24 -10 37 0 71 33 71 69 0 14 3
36 6 49 7 25 3 26 -49 7z"/>
<path d="M3606 2784 c-4 -11 -1 -14 12 -10 9 3 24 1 32 -4 12 -8 10 -10 -10
-11 -14 -1 -31 0 -39 1 -10 1 -9 -3 3 -16 17 -16 20 -16 57 3 l40 20 -25 17
c-32 20 -62 21 -70 0z"/>
<path d="M1733 2783 c-20 -4 -22 -7 -11 -26 23 -44 83 -67 76 -29 -2 9 -8 17
-15 17 -6 0 -15 3 -19 8 -4 4 4 7 18 7 14 0 28 -7 32 -15 3 -8 11 -15 18 -14
10 0 10 2 1 6 -7 2 -13 13 -13 23 0 27 -28 34 -87 23z"/>
<path d="M3480 2771 c0 -5 9 -7 20 -4 11 3 20 7 20 9 0 2 -9 4 -20 4 -11 0
-20 -4 -20 -9z"/>
<path d="M2560 2714 c0 -11 6 -14 18 -10 14 5 14 4 -2 -9 -19 -15 -19 -15 1
-15 19 0 33 17 33 41 0 5 -11 9 -25 9 -16 0 -25 -6 -25 -16z"/>
<path d="M1812 2698 c-7 -7 -12 -20 -12 -30 0 -14 5 -16 23 -9 12 5 22 16 22
26 0 23 -17 29 -33 13z"/>
<path d="M2002 2667 c-20 -9 -22 -17 -21 -64 2 -57 5 -57 52 -11 34 34 10 93
-31 75z m23 -27 c-2 -35 -22 -45 -21 -11 1 17 6 31 12 31 6 0 10 -9 9 -20z"/>
<path d="M1020 2637 c17 -72 43 -107 80 -107 29 0 25 22 -7 42 -16 10 -22 18
-14 18 8 0 4 8 -10 20 -13 10 -20 19 -16 20 4 0 20 -11 35 -25 19 -18 28 -21
34 -12 5 7 8 2 8 -14 0 -14 10 -34 23 -45 12 -10 16 -12 10 -4 -7 8 -13 29
-13 46 0 36 -41 74 -80 74 -12 0 -30 4 -40 10 -16 9 -17 6 -10 -23z"/>
<path d="M4500 2650 c-11 -11 -28 -20 -37 -20 -17 -1 -17 -1 -1 -11 13 -7 24
-5 42 6 21 14 24 14 29 0 4 -9 20 -15 39 -16 l33 -1 -30 -7 c-16 -4 -38 -3
-49 2 -12 6 -22 5 -29 -2 -18 -18 5 -46 41 -49 30 -3 113 31 111 46 -1 16 -83
72 -105 72 -13 0 -33 -9 -44 -20z"/>
<path d="M3411 2653 c-37 -7 -71 -33 -71 -54 0 -21 11 -24 27 -8 7 7 12 6 16
-5 4 -10 1 -16 -9 -16 -8 0 -13 -4 -10 -9 9 -14 44 -2 51 17 7 16 25 84 21 81
0 -1 -12 -4 -25 -6z m-1 -33 c0 -5 -5 -10 -11 -10 -5 0 -7 5 -4 10 3 6 8 10
11 10 2 0 4 -4 4 -10z"/>
<path d="M1680 2640 c0 -5 5 -10 11 -10 5 0 7 5 4 10 -3 6 -8 10 -11 10 -2 0
-4 -4 -4 -10z"/>
<path d="M2568 2628 c6 -25 29 -41 62 -43 l28 -2 -16 34 c-14 28 -21 33 -47
31 -25 -1 -31 -6 -27 -20z m42 -9 c0 -5 -7 -9 -15 -9 -8 0 -15 7 -15 15 0 9 6
12 15 9 8 -4 15 -10 15 -15z"/>
<path d="M4350 2620 c0 -5 5 -10 10 -10 6 0 10 5 10 10 0 6 -4 10 -10 10 -5 0
-10 -4 -10 -10z"/>
<path d="M3096 2591 c18 -31 51 -51 72 -44 19 7 14 23 -7 23 -10 0 -21 7 -25
15 -4 13 -2 14 14 5 15 -8 20 -8 20 2 1 7 7 2 16 -12 l15 -25 -7 25 c-9 33
-21 40 -72 40 l-43 0 17 -29z"/>
<path d="M2087 2593 c-4 -3 -7 -15 -7 -26 0 -13 5 -17 16 -13 9 3 18 6 20 6 2
0 4 5 4 11 0 8 -6 7 -16 -2 -15 -12 -16 -11 -10 9 7 22 5 28 -7 15z"/>
<path d="M2161 2583 c-9 -10 -10 -18 -2 -26 7 -7 12 -6 17 6 9 25 1 37 -15 20z"/>
<path d="M3843 2547 c-2 -30 20 -67 40 -67 6 0 18 -7 26 -15 15 -13 16 -10 14
27 -3 56 -9 68 -33 68 -25 0 -26 -15 -2 -29 9 -6 13 -11 8 -11 -5 0 -2 -8 5
-17 7 -10 1 -7 -14 6 -15 14 -27 32 -27 42 0 32 -15 28 -17 -4z"/>
<path d="M1332 2563 l-24 -5 23 -24 c12 -13 32 -24 45 -24 26 0 39 27 23 46
-11 14 -23 15 -67 7z m68 -23 c0 -13 -20 -13 -40 0 -12 8 -9 10 13 10 15 0 27
-4 27 -10z"/>
<path d="M4058 2550 c-32 -19 -20 -31 25 -24 32 5 39 4 31 -5 -6 -7 -25 -13
-43 -13 -25 -1 -29 -4 -20 -15 12 -14 59 -18 59 -5 0 5 11 15 25 22 21 11 23
16 13 27 -19 18 -70 25 -90 13z"/>
<path d="M2746 2482 c-11 -21 -12 -32 -3 -47 15 -27 68 -77 75 -70 3 3 8 32
10 64 4 53 2 60 -18 71 -28 15 -36 6 -22 -25 7 -14 12 -36 11 -48 0 -21 -1
-21 -12 3 -6 14 -15 28 -20 31 -5 4 -6 16 -2 28 9 30 -2 26 -19 -7z"/>
<path d="M1402 2478 c-18 -18 -15 -41 4 -34 9 3 18 6 20 6 2 0 4 9 4 20 0 23
-10 26 -28 8z"/>
<path d="M4708 2452 c-33 -74 -30 -132 7 -132 12 0 14 11 10 50 -3 27 0 52 5
55 10 6 16 -51 11 -103 -2 -22 -1 -22 19 -5 26 23 26 72 0 106 -11 14 -23 34
-27 45 -7 18 -10 17 -25 -16z"/>
<path d="M1542 2461 c-16 -10 -13 -42 5 -48 7 -3 9 4 6 18 -5 20 -3 21 20 15
29 -7 38 8 11 18 -20 8 -26 7 -42 -3z"/>
<path d="M4184 2444 c-4 -17 -2 -29 7 -35 20 -12 33 5 25 35 -8 33 -24 33 -32
0z m26 -16 c0 -18 -2 -20 -9 -8 -6 8 -7 18 -5 22 9 14 14 9 14 -14z"/>
<path d="M2537 2453 c-10 -10 -8 -43 2 -43 5 0 12 10 14 23 l4 22 2 -22 c1
-24 21 -33 21 -10 0 24 -29 45 -43 30z"/>
<path d="M3165 2453 c-30 -7 -55 -44 -55 -80 0 -18 2 -33 4 -33 1 0 17 5 35
11 32 11 42 32 38 81 -1 16 -2 27 -2 27 0 -1 -9 -3 -20 -6z m15 -26 c0 -2 -12
-17 -27 -33 -26 -28 -26 -28 -10 -2 12 20 13 28 4 31 -6 3 -2 6 11 6 12 1 22
-1 22 -2z"/>
<path d="M3433 2443 c-10 -10 -19 -27 -19 -39 0 -17 3 -19 23 -10 16 8 23 20
23 39 0 32 -1 32 -27 10z"/>
<path d="M4270 2440 c-10 -19 -8 -19 37 -14 l48 5 -33 -15 c-18 -8 -40 -12
-50 -9 -15 6 -15 5 -3 -10 20 -25 46 -21 83 12 l33 30 -28 10 c-43 17 -75 13
-87 -9z"/>
<path d="M2622 2434 c-25 -17 -30 -39 -7 -30 8 3 15 1 15 -3 0 -5 -6 -12 -12
-14 -7 -3 -3 -6 9 -6 15 -1 27 9 38 29 8 16 15 31 15 35 0 11 -36 4 -58 -11z"/>
<path d="M3680 2415 c7 -8 25 -15 41 -15 20 0 27 -4 23 -14 -3 -7 7 -21 21
-30 15 -10 24 -20 21 -23 -3 -4 -15 2 -26 12 -11 10 -20 14 -20 9 0 -5 -7 2
-16 14 -20 29 -34 28 -34 -3 0 -32 51 -65 101 -65 l37 0 -13 37 c-21 61 -50
86 -90 80 -19 -3 -35 -2 -35 4 0 5 -5 9 -11 9 -8 0 -8 -5 1 -15z"/>
<path d="M3487 2393 c-12 -12 -7 -23 11 -23 14 0 15 -2 2 -9 -8 -6 -18 -7 -22
-5 -4 3 -5 -2 -2 -10 8 -20 43 -21 50 -2 3 8 13 12 22 9 10 -3 5 6 -11 21 -29
27 -39 31 -50 19z"/>
<path d="M948 2356 c7 -45 39 -86 68 -86 15 0 24 6 24 15 0 8 -7 15 -15 15 -8
0 -19 9 -25 19 -9 18 -8 18 20 8 17 -6 30 -19 30 -28 0 -9 8 -23 18 -30 15
-12 16 -12 4 2 -7 9 -10 23 -7 31 9 23 -26 57 -76 71 l-45 14 4 -31z"/>
<path d="M3608 2363 c-11 -15 -12 -24 -3 -51 l11 -32 22 23 c26 27 29 57 6 57
-8 0 -12 -4 -9 -10 3 -5 3 -15 -1 -22 -5 -8 -10 -6 -14 8 -4 10 -3 25 2 32 16
19 3 14 -14 -5z"/>
<path d="M4051 2365 c-13 -7 -27 -19 -32 -26 -13 -22 2 -31 21 -14 17 15 18
15 16 -2 0 -10 -10 -21 -21 -25 -19 -6 -19 -6 2 -7 25 -1 33 8 43 55 9 37 7
38 -29 19z"/>
<path d="M4594 2361 c-60 -7 -84 -24 -84 -57 0 -30 26 -32 35 -3 4 11 9 18 12
15 4 -3 13 0 22 6 9 7 6 1 -7 -14 -18 -19 -20 -27 -10 -31 7 -3 -1 -6 -18 -6
-17 -1 -38 -9 -45 -18 -12 -14 -12 -16 1 -8 8 5 29 8 46 7 24 -2 37 4 53 24
12 15 21 34 21 42 0 9 7 24 17 34 9 10 14 17 12 17 -2 -1 -27 -5 -55 -8z"/>
<path d="M2527 2353 c-11 -10 -8 -33 4 -33 5 0 7 5 3 11 -3 6 0 15 7 20 8 5 9
9 3 9 -6 0 -14 -3 -17 -7z"/>
<path d="M3947 2337 c-3 -7 2 -24 10 -38 8 -13 12 -16 9 -6 -3 11 0 17 9 17 8
0 15 5 15 11 0 6 -7 8 -16 5 -8 -3 -12 -2 -9 3 3 5 1 12 -4 15 -5 3 -11 0 -14
-7z"/>
<path d="M1901 2306 c-8 -10 -8 -16 1 -23 21 -17 56 -25 62 -14 3 5 -6 12 -22
16 -25 7 -25 8 -7 15 11 4 26 3 33 -3 9 -7 11 -6 6 7 -8 20 -57 22 -73 2z"/>
<path d="M4313 2266 c4 -9 2 -16 -3 -16 -6 0 -10 5 -10 12 0 6 -2 9 -5 6 -12
-12 9 -38 31 -38 30 0 32 25 2 41 -18 10 -20 9 -15 -5z"/>
<path d="M3440 2225 c0 -34 4 -45 15 -45 12 0 14 7 9 28 -6 26 -6 26 9 7 8
-10 13 -26 10 -35 -3 -9 0 -8 7 4 14 22 1 55 -31 74 -18 11 -19 9 -19 -33z"/>
<path d="M898 2223 l-27 -4 21 -35 c11 -19 29 -39 40 -45 20 -11 58 -4 58 11
0 5 6 8 13 6 6 -1 9 -1 5 1 -5 3 -8 12 -8 21 -1 39 -39 56 -102 45z m47 -33
c4 -6 14 -9 22 -8 9 2 18 -2 20 -8 5 -16 -43 -5 -58 12 -8 9 -8 14 -1 14 6 0
14 -5 17 -10z"/>
<path d="M2198 2189 c-3 -16 1 -37 8 -47 10 -14 14 -14 28 -3 22 18 20 28 -8
56 l-24 24 -4 -30z m32 -35 c0 -8 -4 -14 -10 -14 -5 0 -10 9 -10 21 0 11 5 17
10 14 6 -3 10 -13 10 -21z"/>
<path d="M4286 2195 c8 -31 -4 -33 -16 -2 -9 22 -9 22 -9 -3 -1 -25 32 -64 43
-53 13 13 6 71 -9 77 -12 4 -14 0 -9 -19z"/>
<path d="M1750 2191 c0 -5 6 -12 13 -14 8 -4 7 -6 -3 -6 -9 -1 -22 5 -30 12
-8 6 -6 2 4 -10 18 -22 66 -32 66 -15 0 10 -33 42 -43 42 -4 0 -7 -4 -7 -9z"/>
<path d="M3806 2180 c-20 -21 -16 -47 9 -56 23 -9 45 14 45 47 0 34 -25 38
-54 9z m25 -23 c-6 -8 -8 -17 -4 -20 3 -4 1 -7 -5 -7 -15 0 -15 13 0 28 16 16
23 15 9 -1z"/>
<path d="M3630 2173 c-30 -11 -50 -37 -50 -62 l1 -26 29 35 c17 19 30 32 30
28 0 -13 -29 -61 -42 -69 -10 -7 -10 -9 2 -9 34 0 60 30 60 71 0 39 -3 42 -30
32z"/>
<path d="M3710 2150 c0 -25 4 -30 25 -30 31 0 32 17 3 41 -27 25 -28 24 -28
-11z"/>
<path d="M2663 2158 c-6 -7 -14 -23 -17 -35 -6 -20 -4 -23 17 -23 29 0 50 22
45 47 -4 22 -31 28 -45 11z m37 -19 c0 -5 -4 -9 -10 -9 -5 0 -10 7 -10 16 0 8
5 12 10 9 6 -3 10 -10 10 -16z"/>
<path d="M1687 2138 c-22 -12 -16 -49 12 -79 18 -20 18 -20 25 3 15 59 -3 96
-37 76z m28 -38 c0 -26 -2 -28 -12 -14 -6 9 -9 22 -6 30 9 24 18 16 18 -16z"/>
<path d="M2257 2136 c-9 -24 18 -39 34 -20 12 15 11 16 -11 11 -20 -6 -19 -4
5 8 l30 14 -26 1 c-15 0 -29 -6 -32 -14z"/>
<path d="M2750 2134 c0 -23 22 -48 33 -37 11 11 8 53 -4 53 -7 0 -9 -11 -5
-27 5 -28 5 -28 -9 2 -12 25 -14 27 -15 9z"/>
<path d="M3394 2131 c19 -21 46 -29 46 -12 0 5 -8 11 -17 15 -10 3 -25 9 -33
12 -10 5 -9 0 4 -15z"/>
<path d="M3062 2105 c24 -43 43 -57 64 -53 27 5 28 26 2 30 l-23 3 23 13 c21
12 24 11 29 -7 3 -11 12 -22 21 -26 14 -5 15 -4 5 6 -7 7 -13 21 -13 31 0 23
-35 37 -88 36 l-40 0 20 -33z m43 5 c3 -5 1 -10 -4 -10 -6 0 -11 5 -11 10 0 6
2 10 4 10 3 0 8 -4 11 -10z"/>
<path d="M1346 2114 c-16 -43 1 -84 35 -84 33 0 38 46 9 78 -25 26 -36 28 -44
6z m54 -54 c0 -5 -4 -12 -10 -15 -5 -3 -10 -4 -10 -1 0 2 -3 12 -6 20 -5 12
-2 15 10 10 9 -3 16 -10 16 -14z"/>
<path d="M1892 2123 c-32 -4 -62 -41 -62 -78 0 -19 8 -19 54 0 24 10 36 22 36
35 0 25 -5 25 -30 0 -11 -11 -26 -20 -32 -20 -7 0 -5 5 5 11 9 5 17 17 17 24
0 8 9 15 19 15 11 0 23 5 26 10 3 6 5 9 3 8 -2 0 -18 -3 -36 -5z"/>
<path d="M4190 2119 c0 -7 9 -9 21 -6 16 4 18 3 8 -9 -6 -7 -15 -11 -20 -8 -5
3 -9 0 -9 -5 0 -15 23 -14 38 1 20 20 14 38 -13 38 -14 0 -25 -5 -25 -11z"/>
<path d="M976 2098 c-8 -13 -17 -33 -21 -45 -5 -19 -2 -23 14 -23 11 0 32 5
46 12 42 19 31 78 -16 78 -5 0 -15 -10 -23 -22z m32 -23 c-35 -32 -44 -32 -21
0 10 13 25 25 33 25 10 0 6 -8 -12 -25z"/>
<path d="M1617 2078 c-21 -7 -27 -16 -25 -32 5 -32 30 -25 45 12 7 17 12 32
11 31 -2 0 -16 -5 -31 -11z m3 -38 c0 -5 -4 -10 -10 -10 -5 0 -10 5 -10 10 0
6 5 10 10 10 6 0 10 -4 10 -10z"/>
<path d="M2066 2055 c16 -25 34 -32 48 -18 3 4 -4 13 -16 20 l-23 14 23 -6
c13 -4 22 -2 22 4 0 6 -16 11 -35 11 l-35 0 16 -25z"/>
<path d="M2430 2067 c0 -9 -4 -17 -8 -17 -5 0 -14 -11 -21 -24 -11 -19 -10
-28 3 -52 12 -22 15 -24 14 -9 -2 37 2 56 11 51 5 -3 7 -15 4 -26 -4 -14 0
-20 12 -20 15 0 17 7 12 46 -5 45 -27 87 -27 51z"/>
<path d="M2253 2054 c-3 -8 0 -21 6 -27 10 -9 16 -8 27 7 8 11 14 23 14 28 0
15 -41 8 -47 -8z"/>
<path d="M3161 2008 c-12 -12 -21 -25 -21 -29 0 -4 -3 -14 -6 -23 -5 -12 0
-16 19 -16 43 0 77 18 77 40 0 24 -8 25 -34 5 -11 -8 -25 -15 -30 -15 -6 0 -3
5 7 11 9 5 17 17 17 25 0 11 6 13 19 9 11 -3 22 -2 24 3 3 4 -7 9 -23 10 -19
1 -36 -5 -49 -20z"/>
<path d="M3763 2010 c-30 -24 -30 -66 -2 -75 33 -11 50 31 31 77 -6 15 -9 15
-29 -2z m19 -22 c-7 -7 -12 -21 -12 -32 0 -10 -3 -17 -6 -13 -10 10 5 57 18
57 9 0 9 -3 0 -12z"/>
<path d="M1656 1994 c-16 -16 -9 -45 15 -59 8 -6 62 9 78 21 6 5 -52 54 -65
54 -7 0 -20 -7 -28 -16z m34 -18 c0 -9 -30 -14 -35 -6 -4 6 3 10 14 10 12 0
21 -2 21 -4z"/>
<path d="M4620 2000 c0 -5 12 -10 26 -10 14 0 23 -4 20 -9 -4 -5 8 -21 25 -35
17 -14 26 -26 21 -26 -5 0 -15 7 -22 15 -7 8 -16 12 -21 10 -4 -3 -13 4 -19
15 -14 26 -40 26 -40 0 0 -27 38 -60 69 -60 15 0 40 -4 58 -9 l31 -9 -24 35
c-13 20 -24 40 -24 46 0 5 -10 18 -22 28 -22 20 -78 26 -78 9z"/>
<path d="M2482 1988 c-18 -18 -15 -38 6 -38 11 0 24 11 30 25 10 22 9 25 -6
25 -10 0 -23 -5 -30 -12z"/>
<path d="M1975 1968 c-4 -9 -5 -25 -2 -35 4 -14 5 -13 6 5 0 13 5 21 11 17 5
-3 7 -12 3 -20 -3 -8 0 -15 6 -15 15 0 14 22 -3 46 -13 17 -15 18 -21 2z"/>
<path d="M1813 1935 c26 -40 45 -49 78 -36 21 9 22 10 4 11 -20 0 -79 40 -60
39 6 0 19 -6 29 -14 26 -20 36 -19 36 4 0 23 -19 31 -70 31 l-39 0 22 -35z"/>
<path d="M4008 1956 c-17 -13 -25 -56 -11 -56 3 0 15 7 25 17 17 15 18 15 18
-11 0 -24 -3 -26 -26 -20 -19 5 -25 4 -20 -5 4 -6 22 -11 41 -11 35 0 64 28
79 78 7 21 5 22 -41 22 -26 0 -56 -7 -65 -14z m82 -16 c0 -5 -5 -10 -11 -10
-5 0 -7 5 -4 10 3 6 8 10 11 10 2 0 4 -4 4 -10z"/>
<path d="M1120 1945 c-14 -8 -37 -20 -53 -28 l-27 -13 41 -27 c49 -32 94 -35
109 -8 5 11 10 22 10 25 0 11 -36 6 -48 -6 -9 -9 -12 -9 -12 0 0 7 -12 13 -27
13 -25 1 -24 2 7 9 19 4 42 10 51 14 10 4 20 3 24 -3 3 -6 16 -11 28 -10 l22
0 -21 9 c-12 4 -24 15 -27 24 -8 20 -44 20 -77 1z"/>
<path d="M4313 1931 c16 -19 24 -38 20 -44 -5 -8 -9 -4 -11 11 -4 27 -32 30
-32 3 0 -20 48 -62 85 -75 16 -6 18 -5 8 5 -7 7 -13 27 -13 44 0 32 -12 47
-60 74 -24 14 -24 14 3 -18z"/>
<path d="M2120 1934 c-14 -7 -19 -14 -12 -14 7 0 22 -9 34 -20 26 -23 29 -24
51 -7 11 8 15 20 11 35 -7 26 -44 29 -84 6z m69 -13 c8 -5 9 -11 3 -15 -5 -3
-15 1 -22 9 -14 16 -3 20 19 6z"/>
<path d="M4230 1913 c0 -14 -3 -23 -7 -20 -3 4 -12 -1 -20 -11 -10 -13 -13
-13 -11 -2 2 8 9 21 16 28 17 18 9 26 -17 17 -20 -6 -37 -55 -29 -89 2 -14 9
-13 41 9 31 21 37 32 37 60 0 19 -2 35 -5 35 -3 0 -5 -12 -5 -27z"/>
<path d="M3840 1908 c0 -29 33 -63 50 -53 8 5 5 13 -9 26 -12 11 -21 25 -21
32 0 7 5 4 11 -5 5 -10 16 -18 24 -18 7 0 16 -6 18 -12 4 -9 6 -8 6 2 1 25
-13 39 -47 46 -29 6 -32 4 -32 -18z"/>
<path d="M1785 1837 c-7 -27 0 -47 15 -47 5 0 6 8 3 18 -6 15 -5 15 10 3 25
-20 23 11 -3 34 -18 17 -19 16 -25 -8z"/>
<path d="M4574 1848 c3 -10 -1 -32 -9 -50 l-15 -33 4 43 c5 44 -3 53 -24 27
-14 -16 -8 -50 13 -79 13 -18 15 -17 35 16 26 42 27 48 6 74 -13 16 -15 16
-10 2z"/>
<path d="M1232 1834 c-9 -10 -11 -24 -6 -42 4 -15 6 -34 5 -42 -2 -8 13 0 33
19 41 39 45 56 17 71 -26 13 -33 12 -49 -6z m38 -14 c0 -11 -4 -20 -10 -20 -5
0 -10 9 -10 20 0 11 5 20 10 20 6 0 10 -9 10 -20z"/>
<path d="M1411 1806 l-22 -23 23 -7 c39 -10 59 -7 86 16 19 15 21 19 7 13 -11
-4 -36 -9 -55 -11 l-35 -3 38 11 c44 14 49 28 9 28 -17 0 -38 -10 -51 -24z"/>
<path d="M2287 1813 c3 -7 9 -11 13 -8 4 3 7 -3 6 -13 -1 -11 7 -18 24 -20 24
-4 25 -3 5 12 -16 13 -17 15 -2 10 11 -4 17 -1 17 9 0 9 -12 16 -34 19 -24 3
-32 0 -29 -9z"/>
<path d="M3580 1814 c0 -17 53 -62 66 -57 18 7 18 23 0 23 -8 0 -18 5 -21 10
-4 7 3 9 20 6 18 -3 25 -1 22 7 -4 13 -87 23 -87 11z"/>
<path d="M3379 1792 c-8 -1 -23 -16 -33 -32 -14 -25 -15 -29 -1 -24 8 3 15 2
15 -4 0 -18 32 -23 54 -8 12 7 28 27 38 42 l16 29 -36 0 c-21 0 -44 -1 -53 -3z
m33 -32 c-26 -24 -52 -26 -52 -4 0 9 6 14 13 11 6 -2 21 -1 32 4 30 12 31 11
7 -11z"/>
<path d="M4304 1778 c3 -10 9 -25 13 -35 4 -11 3 -14 -5 -9 -7 4 -12 3 -12 -2
0 -6 -7 -12 -15 -16 -13 -4 -13 -2 -5 14 20 38 4 55 -26 26 -18 -19 -18 -54 2
-101 15 -36 16 -37 32 -19 55 61 64 99 31 135 -15 17 -19 19 -15 7z m-17 -100
c-3 -8 -6 -5 -6 6 -1 11 2 17 5 13 3 -3 4 -12 1 -19z"/>
<path d="M3970 1762 c0 -11 24 -22 50 -22 10 0 20 -9 23 -19 7 -29 -2 -32 -26
-8 l-22 22 -3 -24 c-6 -37 25 -58 93 -64 33 -3 54 -3 48 1 -6 4 -19 26 -28 48
-18 46 -52 70 -84 59 -13 -4 -28 -1 -36 5 -9 8 -15 8 -15 2z m120 -84 c0 -6
-6 -5 -15 2 -8 7 -15 14 -15 16 0 2 7 1 15 -2 8 -4 15 -11 15 -16z"/>
<path d="M2254 1717 c-13 -28 -14 -38 -4 -53 7 -12 10 -13 7 -3 -3 8 1 26 9
40 13 23 13 23 14 -16 1 -36 2 -38 15 -22 10 14 11 26 3 48 -15 43 -26 44 -44
6z"/>
<path d="M1550 1733 c0 -5 5 -14 12 -21 9 -9 9 -12 0 -12 -7 0 -12 -13 -12
-30 0 -16 -5 -30 -10 -30 -7 0 -9 16 -6 40 4 34 2 40 -13 40 -37 0 -41 -53 -8
-98 l24 -32 33 47 c31 43 32 48 19 71 -14 26 -39 41 -39 25z"/>
<path d="M3920 1730 c0 -5 -7 -10 -15 -10 -24 0 -23 -54 3 -83 15 -16 16 -16
34 10 23 36 23 65 -2 81 -12 7 -20 8 -20 2z m18 -22 c-2 -6 -10 -14 -16 -16
-7 -2 -10 2 -6 12 7 18 28 22 22 4z"/>
<path d="M2503 1720 c-27 -11 -32 -25 -5 -15 14 5 15 4 5 -6 -15 -15 -17 -29
-4 -29 5 0 14 14 20 30 5 17 9 30 8 29 -1 0 -12 -4 -24 -9z"/>
<path d="M3638 1688 c-30 -29 -32 -36 -19 -57 7 -11 13 -7 24 20 14 32 15 33
13 6 -2 -15 -8 -33 -14 -39 -7 -7 -12 -16 -12 -20 0 -4 9 1 21 13 15 15 19 30
17 62 l-3 42 -27 -27z"/>
<path d="M3450 1675 c-10 -13 -10 -19 5 -35 23 -25 26 -25 59 1 25 20 26 22 9
35 -24 18 -58 18 -73 -1z m60 -15 c-18 -11 -63 -13 -57 -2 3 4 20 8 39 9 24 2
29 0 18 -7z"/>
<path d="M1733 1673 c-25 -9 -14 -33 15 -32 l27 1 -25 8 c-24 8 -24 8 -2 9 12
1 22 6 22 11 0 10 -16 12 -37 3z"/>
<path d="M2173 1650 c9 -23 17 -30 37 -29 15 0 19 3 10 6 -20 8 -44 33 -31 33
5 0 13 -4 16 -10 9 -15 25 -12 25 4 0 7 -10 16 -22 20 -43 11 -47 8 -35 -24z"/>
<path d="M2336 1653 c-6 -14 -5 -15 5 -6 7 7 10 15 7 18 -3 3 -9 -2 -12 -12z"/>
<path d="M1880 1625 c0 -14 5 -25 10 -25 6 0 10 11 10 25 0 14 -4 25 -10 25
-5 0 -10 -11 -10 -25z"/>
<path d="M1913 1633 c-1 -10 -4 -29 -8 -43 -7 -24 -7 -24 8 -5 9 11 17 30 17
43 0 26 -15 30 -17 5z"/>
<path d="M1653 1608 c-11 -13 -23 -34 -26 -48 -5 -22 -3 -25 26 -27 59 -4 77
5 77 36 0 31 -22 61 -44 61 -7 0 -22 -10 -33 -22z m67 -27 c0 -14 -5 -18 -19
-14 -10 3 -22 0 -25 -6 -4 -6 -13 -11 -19 -11 -7 0 -3 7 7 15 11 8 16 15 10
16 -5 1 2 5 16 9 14 4 26 8 28 9 1 1 2 -8 2 -18z"/>
<path d="M2309 1610 c-10 -15 -20 -19 -32 -14 -15 5 -16 9 -5 15 9 6 9 9 1 9
-20 0 -24 -18 -7 -34 8 -9 20 -16 24 -16 12 0 45 49 38 56 -3 2 -11 -5 -19
-16z"/>
<path d="M2475 1593 c-24 -14 -26 -18 -12 -21 9 -2 17 -8 17 -13 0 -15 53 -6
58 9 3 9 -4 11 -22 8 -14 -3 -28 0 -31 5 -5 8 24 14 48 10 5 -1 6 3 2 9 -9 14
-25 12 -60 -7z"/>
<path d="M1993 1575 c-7 -8 -13 -24 -13 -35 0 -16 5 -21 21 -18 24 3 48 33 36
44 -4 4 -14 -1 -23 -12 -14 -17 -14 -16 0 9 18 30 2 39 -21 12z"/>
<path d="M2241 1547 c-14 -6 -28 -24 -32 -38 -6 -23 -4 -26 15 -21 33 8 46 22
44 48 -1 13 -3 24 -3 24 0 0 -11 -6 -24 -13z m19 -11 c0 -2 -7 -9 -15 -16 -13
-11 -14 -10 -9 4 5 14 24 23 24 12z"/>
<path d="M2100 1533 c0 -22 23 -47 33 -36 10 9 8 53 -2 53 -4 0 -7 -12 -5 -27
2 -17 1 -20 -2 -8 -9 31 -24 42 -24 18z"/>
<path d="M3262 1542 l-23 -7 21 -22 c26 -29 66 -30 75 -3 12 37 -14 48 -73 32z
m68 -23 c0 -11 -37 -12 -43 -1 -3 4 6 8 19 8 13 1 24 -2 24 -7z"/>
<path d="M1820 1520 c-15 -27 7 -90 32 -90 15 0 36 62 28 85 -9 25 -47 28 -60
5z m50 -9 c0 -5 -7 -11 -15 -15 -15 -5 -20 5 -8 17 9 10 23 9 23 -2z"/>
<path d="M3658 1529 c6 -7 12 -21 12 -30 0 -26 39 -49 82 -49 44 0 46 5 15 51
-15 22 -32 35 -50 37 -31 4 -37 -17 -7 -25 11 -3 20 -9 20 -14 0 -4 -9 -7 -20
-6 -11 1 -20 6 -20 12 0 5 -10 16 -22 24 -18 10 -20 11 -10 0z m97 -49 c3 -5
1 -10 -4 -10 -6 0 -11 5 -11 10 0 6 2 10 4 10 3 0 8 -4 11 -10z"/>
<path d="M2325 1500 c-10 -32 3 -55 41 -73 l35 -17 -3 52 c-3 46 -6 53 -25 56
-27 4 -30 -13 -5 -27 14 -9 13 -10 -10 -9 -22 2 -27 6 -22 20 3 10 3 18 0 18
-2 0 -8 -9 -11 -20z m55 -51 c0 -6 -4 -7 -10 -4 -5 3 -10 11 -10 16 0 6 5 7
10 4 6 -3 10 -11 10 -16z"/>
<path d="M2587 1513 c-11 -10 -8 -65 3 -58 21 13 30 43 16 54 -7 6 -16 8 -19
4z"/>
<path d="M3164 1416 c-3 -8 -17 -17 -32 -21 -23 -6 -25 -8 -12 -19 8 -6 20
-20 26 -31 6 -11 22 -20 35 -21 47 -2 51 -4 45 -19 -3 -8 -1 -15 4 -15 21 0 9
30 -22 55 l-33 26 38 -7 c30 -5 37 -3 37 10 0 9 -11 22 -25 28 -14 6 -25 15
-25 20 0 14 -30 9 -36 -6z"/>
<path d="M3245 1330 c4 -6 11 -8 16 -5 14 9 11 15 -7 15 -8 0 -12 -5 -9 -10z"/>
</g>
</svg>
